<?xml version="1.0" encoding="utf-8"?>
<!-- Generator: Adobe Illustrator 25.0.1, SVG Export Plug-In . SVG Version: 6.00 Build 0)  -->
<svg version="1.1" id="Layer_1" xmlns="http://www.w3.org/2000/svg" xmlns:xlink="http://www.w3.org/1999/xlink" x="0px" y="0px"
	 viewBox="0 0 3061.4 3061.4" style="enable-background:new 0 0 3061.4 3061.4;" xml:space="preserve">
<style type="text/css">
	.st0{fill:url(#SVGID_1_);}
	.st1{fill:url(#SVGID_2_);}
	.st2{fill:url(#SVGID_3_);}
	.st3{fill:url(#SVGID_4_);}
	.st4{fill:url(#SVGID_5_);}
	.st5{fill:url(#SVGID_6_);}
	.st6{fill:url(#SVGID_7_);}
	.st7{fill:url(#SVGID_8_);}
	.st8{fill:url(#SVGID_9_);}
	.st9{fill:url(#SVGID_10_);}
	.st10{fill:url(#SVGID_11_);}
	.st11{fill:url(#SVGID_12_);}
	.st12{fill:url(#SVGID_13_);}
	.st13{fill:url(#SVGID_14_);}
	.st14{fill:url(#SVGID_15_);}
	.st15{fill:url(#SVGID_16_);}
	.st16{fill:url(#SVGID_17_);}
	.st17{fill:url(#SVGID_18_);}
	.st18{fill:url(#SVGID_19_);}
	.st19{fill:url(#SVGID_20_);}
	.st20{fill:url(#SVGID_21_);}
	.st21{fill:url(#SVGID_22_);}
	.st22{fill:url(#SVGID_23_);}
	.st23{fill:url(#SVGID_24_);}
	.st24{fill:url(#SVGID_25_);}
	.st25{fill:url(#SVGID_26_);}
	.st26{fill:url(#SVGID_27_);}
	.st27{fill:url(#SVGID_28_);}
	.st28{fill:url(#SVGID_29_);}
	.st29{fill:url(#SVGID_30_);}
	.st30{fill:url(#SVGID_31_);}
	.st31{fill:url(#SVGID_32_);}
	.st32{fill:url(#SVGID_33_);}
	.st33{fill:url(#SVGID_34_);}
	.st34{fill:url(#SVGID_35_);}
	.st35{fill:url(#SVGID_36_);}
	.st36{fill:url(#SVGID_37_);}
	.st37{fill:url(#SVGID_38_);}
</style>
<g>
	
		<linearGradient id="SVGID_1_" gradientUnits="userSpaceOnUse" x1="748.8504" y1="1429.3573" x2="1665.2" y2="1429.3573" gradientTransform="matrix(1 0 0 -1 0 3061.4175)">
		<stop  offset="0" style="stop-color:#DE333B"/>
		<stop  offset="1" style="stop-color:#C31A20"/>
	</linearGradient>
	<path class="st0" d="M1665.2,1055.1c-53.4,28.8-127.4,63-226.1,61.7c-109.6-1.4-282.3-48-368.6-54.8
		c-174-6.8-261.7,212.4-261.7,212.4S913,1199,1073.3,1210c49.3,2.7,131.5,2.7,135.7,11c-111,38.4-252.1,100-375.4,261.7
		c-65.8,95.9-124.7,237-49.3,423.4c90.4,180.9,308.3,308.3,586.4,302.8c158.9-2.7,135.7-16.4,56.2-17.8
		c-137,0-313.8-52.1-427.5-145.2c-141.1-111-164.4-296-117.8-408.3c60.3-145.2,237-259,489.2-343.9
		c141.1-49.3,201.4-58.9,246.6-135.7L1665.2,1055.1z"/>
	
		<linearGradient id="SVGID_2_" gradientUnits="userSpaceOnUse" x1="1389.3804" y1="2271.1294" x2="1565.1899" y2="2271.1294" gradientTransform="matrix(1 0 0 -1 0 3061.4175)">
		<stop  offset="0" style="stop-color:#DE333B"/>
		<stop  offset="1" style="stop-color:#C31A20"/>
	</linearGradient>
	<path class="st1" d="M1414.5,526.2c-16.4,68.5-27.4,148-24.7,189.1c5.5,169.9,46.6,337.1,46.6,337.1s57.6,9.6,128.8-13.7
		C1551.5,971.6,1456.9,585.2,1414.5,526.2z"/>
	
		<linearGradient id="SVGID_3_" gradientUnits="userSpaceOnUse" x1="596.4701" y1="2187.8931" x2="1289.78" y2="2187.8931" gradientTransform="matrix(1 0 0 -1 0 3061.4175)">
		<stop  offset="0" style="stop-color:#DE333B"/>
		<stop  offset="1" style="stop-color:#C31A20"/>
	</linearGradient>
	<path class="st2" d="M1289.8,630.4c-50.7,5.5-160.3,34.2-259,149.3C1011.6,729,900.7,618,899.3,622.2
		c-32.9,64.4-79.5,198.7-76.7,204.2c-93.2-54.8-174-54.8-226.1-37c89.1,58.9,135.7,160.3,139.8,160.3
		c-5.5-68.5-65.8-126.1-65.8-126.1c35.6-6.8,104.1,9.6,143.9,39.7c-15.1,124.7,75.4,115.1,69.9,42.5c-2.7-21.9-19.2-42.5-28.8-56.2
		c23.3-82.2,57.5-149.4,57.5-149.4c48,38.4,94.5,106.9,94.5,106.9c-65.8,123.3,30.1,138.4,43.8,76.7c4.1-21.9-4.1-68.5-4.1-68.5
		c97.3-94.5,161.7-115.1,161.7-115.1c-50.7,82.2-101.4,212.4-101.4,211c-43.8,9.6-56.2,11-117.8,23.3c-126.1,37-182.2,111-185,190.5
		c91.8-139.8,201.4-176.8,338.4-158.9c21.9-39.7,45.2-113.7,50.7-130.2C1215.8,782.5,1252.8,693.4,1289.8,630.4z M855.4,927.7
		c-13.7,2.7-17.8-48-9.6-46.6C854.1,883.9,871.9,925,855.4,927.7z M1015.7,892.1c-13.7-1.4,1.4-46.6,6.8-42.5
		C1024,853.7,1028.1,896.2,1015.7,892.1z"/>
	
		<linearGradient id="SVGID_4_" gradientUnits="userSpaceOnUse" x1="541.368" y1="2287.6833" x2="599.0886" y2="2287.6833" gradientTransform="matrix(1 0 0 -1 0 3061.4175)">
		<stop  offset="0" style="stop-color:#DE333B"/>
		<stop  offset="1" style="stop-color:#C31A20"/>
	</linearGradient>
	<path class="st3" d="M577.3,745.5c-34.2-1.4-53.4,48-13.7,56.2C606.1,807.1,610.2,751,577.3,745.5z"/>
	
		<linearGradient id="SVGID_5_" gradientUnits="userSpaceOnUse" x1="865.2584" y1="2483.6968" x2="925.0553" y2="2483.6968" gradientTransform="matrix(1 0 0 -1 0 3061.4175)">
		<stop  offset="0" style="stop-color:#DE333B"/>
		<stop  offset="1" style="stop-color:#C31A20"/>
	</linearGradient>
	<path class="st4" d="M897.9,549.5c-35.6,1.4-48,53.4-6.8,56.2C930.8,609.8,939,549.5,897.9,549.5z"/>
	
		<linearGradient id="SVGID_6_" gradientUnits="userSpaceOnUse" x1="1286.4663" y1="2452.9502" x2="1346.1755" y2="2452.9502" gradientTransform="matrix(1 0 0 -1 0 3061.4175)">
		<stop  offset="0" style="stop-color:#DE333B"/>
		<stop  offset="1" style="stop-color:#C31A20"/>
	</linearGradient>
	<path class="st5" d="M1315.8,581.1c-35.6,2.7-42.5,50.7,0,54.8C1352.8,637.2,1359.7,581.1,1315.8,581.1z"/>
	
		<linearGradient id="SVGID_7_" gradientUnits="userSpaceOnUse" x1="1211.175" y1="2167.803" x2="1349.2742" y2="2167.803" gradientTransform="matrix(1 0 0 -1 0 3061.4175)">
		<stop  offset="0" style="stop-color:#DE333B"/>
		<stop  offset="1" style="stop-color:#C31A20"/>
	</linearGradient>
	<path class="st6" d="M1217.2,863.3c-23.3,74,27.4,91.8,49.3,68.5c23.3,32.9,38.4,42.5,38.4,80.8c50.7-32.9,30.1-100,12.3-148
		c-9.6-54.8,26-34.2,31.5-37c9.6-79.5-102.8-76.7-53.4,56.2c6.8,24.7,15.1,67.1,12.3,68.5C1298,923.6,1282.9,864.7,1217.2,863.3z"/>
	
		<linearGradient id="SVGID_8_" gradientUnits="userSpaceOnUse" x1="1044.51" y1="1324.8547" x2="1359.7302" y2="1324.8547" gradientTransform="matrix(1 0 0 -1 0 3061.4175)">
		<stop  offset="0" style="stop-color:#DE333B"/>
		<stop  offset="1" style="stop-color:#C31A20"/>
	</linearGradient>
	<path class="st7" d="M1044.5,1741.6c57.6,32.9,161.7,27.4,197.3,135.7c42.5-48,120.6-116.5,117.8-174
		c-12.3-56.2-109.6-71.2-171.3-105.5C1122.6,1581.3,1096.6,1678.6,1044.5,1741.6z"/>
	
		<linearGradient id="SVGID_9_" gradientUnits="userSpaceOnUse" x1="1474.75" y1="1822.0023" x2="2190.7869" y2="1822.0023" gradientTransform="matrix(1 0 0 -1 0 3061.4175)">
		<stop  offset="0" style="stop-color:#DE333B"/>
		<stop  offset="1" style="stop-color:#C31A20"/>
	</linearGradient>
	<path class="st8" d="M1474.8,1308.6c19.2,219.2,17.8,424.8,0,639.9c90.4-52.1,137-37,259-52.1c46.6-9.6,71.2-31.5,89.1-71.2
		c27.4,57.6,76.7,91.8,178.1,82.2c75.4-4.1,139.8-23.3,169.9-112.3c50.7-191.8,0-453.5-95.9-801.6c-26-97.3-26-211-2.7-357.6
		l31.5-105.5c-21.9,5.5-102.8,78.1-131.5,169.9c-37,100-52.1,198.7-30.1,385c53.4,278.2,169.9,557.7,102.8,600.1
		c-82.2,48-141.1,19.2-160.3-75.4c-20.6-82.2-28.8-260.3-39.7-265.8l-104.1,69.9c-63,94.5,23.3,209.6,19.2,264.4
		c-2.7,54.8-74,52.1-128.8,49.3c12.3-95.9-4.1-368.6-32.9-482.3C1561.1,1275.7,1513.1,1286.7,1474.8,1308.6L1474.8,1308.6z"/>
	
		<linearGradient id="SVGID_10_" gradientUnits="userSpaceOnUse" x1="1613.1401" y1="2012.1726" x2="1926.9102" y2="2012.1726" gradientTransform="matrix(1 0 0 -1 0 3061.4175)">
		<stop  offset="0" style="stop-color:#DE333B"/>
		<stop  offset="1" style="stop-color:#C31A20"/>
	</linearGradient>
	<path class="st9" d="M1781.7,1056.5c28.8-27.4,98.7-56.2,90.4-122c-67.1-31.5-105.5-49.3-156.2-98.7c-27.4-2.7-102.8,63-102.8,97.3
		c2.7,45.2,78.1,61.7,135.7,109.6c-21.9,34.2-91.8,65.8-83.6,116.5c34.2,61.7,128.8,109.6,179.5,102.8c31.5-1.4,74-60.3,82.2-91.8
		c-9.6-27.4-146.6-89.1-153.5-115.1C1773.4,1055.1,1781.7,1056.5,1781.7,1056.5z"/>
	
		<linearGradient id="SVGID_11_" gradientUnits="userSpaceOnUse" x1="2151.1438" y1="1807.6073" x2="2407.6296" y2="1807.6073" gradientTransform="matrix(1 0 0 -1 0 3061.4175)">
		<stop  offset="0" style="stop-color:#DE333B"/>
		<stop  offset="1" style="stop-color:#C31A20"/>
	</linearGradient>
	<path class="st10" d="M2296.9,529c-39.7,4.1-117.8,141.1-131.5,206.9c-46.6,191.8,32.9,437.1,76.7,655
		c49.3,204.2,69.9,364.5,11,587.8c30.1-6.8,105.5-108.2,134.3-228.8c32.9-134.3,19.2-274,5.5-387.8
		c-48-260.3-97.3-413.8-108.2-582.3C2280.4,693.4,2296.9,533.1,2296.9,529z"/>
</g>
<g>
	
		<linearGradient id="SVGID_12_" gradientUnits="userSpaceOnUse" x1="741.2" y1="662.4224" x2="852.67" y2="662.4224" gradientTransform="matrix(1 0 0 -1 0 3061.4175)">
		<stop  offset="0" style="stop-color:#DE333B"/>
		<stop  offset="1" style="stop-color:#C31A20"/>
	</linearGradient>
	<path class="st11" d="M838.7,2349.1c-10.3-16.7-24.4-25.1-42-25.1c-13.7,0-25.6,4.3-35.9,13.2l8.5,18c8.5-6.2,16.4-9.4,24.4-9.4
		c7.5-0.2,14.2,2.1,19.9,6.4c7.8,5.7,12.6,14.8,14.4,27.4h-43.8c-12.6,0-22.8,5-31.3,14.9c-7.8,9.4-11.7,20.3-11.7,33.1
		s4.6,23.8,13.5,32.7c9.1,9.1,20.1,13.7,32.9,13.7h32v-22.1h-30.2c-6.2,0-11.9-2.3-16.7-6.6c-5.2-4.8-8-11-8-18.5
		c0-15.3,9.1-24.7,25.3-24.7h62.6C852.7,2381.5,848.1,2363.9,838.7,2349.1z"/>
	
		<linearGradient id="SVGID_13_" gradientUnits="userSpaceOnUse" x1="792.81" y1="634.1022" x2="814.74" y2="634.1022" gradientTransform="matrix(1 0 0 -1 0 3061.4175)">
		<stop  offset="0" style="stop-color:#DE333B"/>
		<stop  offset="1" style="stop-color:#C31A20"/>
	</linearGradient>
	<rect x="792.8" y="2415.8" class="st12" width="21.9" height="23.1"/>
	
		<linearGradient id="SVGID_14_" gradientUnits="userSpaceOnUse" x1="992.87" y1="750.3622" x2="1015.02" y2="750.3622" gradientTransform="matrix(1 0 0 -1 0 3061.4175)">
		<stop  offset="0" style="stop-color:#DE333B"/>
		<stop  offset="1" style="stop-color:#C31A20"/>
	</linearGradient>
	<rect x="992.9" y="2299.5" class="st13" width="22.2" height="23.1"/>
	
		<linearGradient id="SVGID_15_" gradientUnits="userSpaceOnUse" x1="959.75" y1="750.3622" x2="981.9" y2="750.3622" gradientTransform="matrix(1 0 0 -1 0 3061.4175)">
		<stop  offset="0" style="stop-color:#DE333B"/>
		<stop  offset="1" style="stop-color:#C31A20"/>
	</linearGradient>
	<rect x="959.8" y="2299.5" class="st14" width="22.2" height="23.1"/>
	
		<linearGradient id="SVGID_16_" gradientUnits="userSpaceOnUse" x1="882.33" y1="710.8718" x2="1092" y2="710.8718" gradientTransform="matrix(1 0 0 -1 0 3061.4175)">
		<stop  offset="0" style="stop-color:#DE333B"/>
		<stop  offset="1" style="stop-color:#C31A20"/>
	</linearGradient>
	<path class="st15" d="M1091.1,2276.7h-24c0,11.2,0.2,29.7,0.5,55c0.2,22.4,0.5,40.6,0.5,54.8c0,10.3-6.6,15.8-15.5,15.8h-11.6h-3.9
		h-16.4c-4.6,0-8.7-2.1-12.6-6.4c-4.8-4.8-7.1-11.2-7.1-19.2c-0.5-15.3-0.7-27.2-0.7-35.6h-24l0.5,45.2c0,5.2-2.3,9.4-7.1,12.3
		c-3.7,2.5-7.5,3.6-11.9,3.6h-22.6h-4.3H918c-6.4,0-10.5-6.2-10.5-14.4l-0.9-111.2h-24.2l0.7,120.8c0,8.7,2.7,15.5,7.8,20.3
		c4.3,4.3,9.8,6.6,16.2,6.6h23.8h4.3h31.7c12.6-0.2,24.4-7.3,28.3-18.5c1.1,3.4,3.2,6.6,5.7,9.8c4.8,5.7,10.7,8.7,17.6,8.7h18.5h3.9
		h20.3c19.9,0,30.8-11.4,30.8-29.7c0-14.6-0.2-34.3-0.5-58.9C1091.3,2306.8,1091.3,2287.2,1091.1,2276.7z"/>
	
		<linearGradient id="SVGID_17_" gradientUnits="userSpaceOnUse" x1="1121.6801" y1="710.8474" x2="1146.8" y2="710.8474" gradientTransform="matrix(1 0 0 -1 0 3061.4175)">
		<stop  offset="0" style="stop-color:#DE333B"/>
		<stop  offset="1" style="stop-color:#C31A20"/>
	</linearGradient>
	<polygon class="st16" points="1121.7,2276.7 1122.8,2424.5 1146.8,2424.5 1145.7,2276.7 	"/>
	
		<linearGradient id="SVGID_18_" gradientUnits="userSpaceOnUse" x1="1263.27" y1="760.8622" x2="1285.42" y2="760.8622" gradientTransform="matrix(1 0 0 -1 0 3061.4175)">
		<stop  offset="0" style="stop-color:#DE333B"/>
		<stop  offset="1" style="stop-color:#C31A20"/>
	</linearGradient>
	<rect x="1263.3" y="2289" class="st17" width="22.2" height="23.1"/>
	
		<linearGradient id="SVGID_19_" gradientUnits="userSpaceOnUse" x1="1397.5601" y1="613.7822" x2="1419.7101" y2="613.7822" gradientTransform="matrix(1 0 0 -1 0 3061.4175)">
		<stop  offset="0" style="stop-color:#DE333B"/>
		<stop  offset="1" style="stop-color:#C31A20"/>
	</linearGradient>
	<rect x="1397.6" y="2436.1" class="st18" width="22.2" height="23.1"/>
	
		<linearGradient id="SVGID_20_" gradientUnits="userSpaceOnUse" x1="1211.6501" y1="679.8923" x2="1732.3899" y2="679.8923" gradientTransform="matrix(1 0 0 -1 0 3061.4175)">
		<stop  offset="0" style="stop-color:#DE333B"/>
		<stop  offset="1" style="stop-color:#C31A20"/>
	</linearGradient>
	<path class="st19" d="M1689,2338.6c-26.3,0-41.6,16.4-41.6,42.9c0,7.3,1.6,14.2,4.8,20.8h-23.3h-4.3h-29
		c-3.9-41.1-21.7-61.7-53.4-61.7c-17.8,0-32.2,7.3-43.2,21.7l1.4-73.3h-23.8l0.7,113.3h-18.9h-3.9H1438c-4.6,0-8.7-2.1-12.6-6.4
		c-4.8-4.8-7.1-11.2-7.1-19.2c-0.5-15.3-0.7-27.2-0.7-35.6h-24l0.5,45.2c0,5.2-2.3,9.4-7.1,12.3c-3.7,2.5-7.5,3.6-11.9,3.6h-22.8
		h-4.1h-5.9c-3.9,0-7.5-0.9-10.7-3c-4.8-2.7-7.3-6.9-7.8-12.3c-2.1-17.4-8-32-17.6-43.6c-10.5-13-23.5-19.4-39.1-19.4
		c-13.7,0-25.8,4.3-36.1,13.2l8.7,18c8.2-6.2,16.4-9.4,24.4-9.4c7.3-0.2,13.9,2.1,19.6,6.4c7.8,5.7,12.6,14.8,14.6,27.4h-43.8
		c-12.6,0-23.1,5-31.3,14.9c-7.8,9.4-11.7,20.3-11.7,33.1s4.6,23.8,13.5,32.7c9.1,9.1,20.1,13.7,32.9,13.7h32v-22.1h-30.2
		c-6.2,0-11.9-2.3-16.7-6.6c-5.2-4.8-8-11-8-18.5c0-15.3,9.1-24.7,25.3-24.7h45c7.1,14.9,18.5,22.4,34.3,22.4h8.4h4.3h31.7
		c12.6-0.2,24.4-7.3,28.3-18.5c1.1,3.4,3.2,6.6,5.7,9.8c4.8,5.7,10.7,8.7,17.6,8.7h18.5h3.9h166.3h4.3h62.8
		c25.6,0,40.7-16.4,40.7-42.9c0-11.2-3.7-21-11-29.2C1713,2343.1,1702.2,2338.6,1689,2338.6z M1495.5,2402.3
		c9.4-26.7,24.9-40,46.1-40c19.6,0,29.7,13.2,29.9,40H1495.5z M1691,2404.8c-4.8,0-9.1-1.8-12.6-5.7c-3.9-4.3-5.9-10.3-5.9-17.4
		c0-7.3,1.6-13,5-17.4c3.2-3.9,7.3-5.7,12.6-5.7c4.8,0,9.1,1.8,12.6,5.7c3.9,4.3,5.9,10.3,5.9,17.4
		C1708.6,2396.4,1701.1,2404.8,1691,2404.8z"/>
	
		<linearGradient id="SVGID_21_" gradientUnits="userSpaceOnUse" x1="1762.0601" y1="654.0975" x2="1844.05" y2="654.0975" gradientTransform="matrix(1 0 0 -1 0 3061.4175)">
		<stop  offset="0" style="stop-color:#DE333B"/>
		<stop  offset="1" style="stop-color:#C31A20"/>
	</linearGradient>
	<path class="st20" d="M1804.8,2340.6c-23.5,0-42.7,17.1-42.7,42.9c0,21.7,15.5,40.9,38.1,40.9h16c-7.3,19-25.3,30.6-46.1,30.6
		c6.4,8,11.4,14.4,14.8,19c35.9-2.7,59.2-31.5,59.2-70.8v-26.5C1844.1,2354.8,1829.9,2340.6,1804.8,2340.6z M1803.6,2402.1
		c-9.6,0-17.4-8.9-17.4-19.6c0-15.5,8-25.1,18.5-25.1c8,0,14.8,8.9,14.8,13.9c0,1.8,0,12.1,0.2,30.8H1803.6z"/>
	
		<linearGradient id="SVGID_22_" gradientUnits="userSpaceOnUse" x1="1909.1357" y1="679.8923" x2="2496.7798" y2="679.8923" gradientTransform="matrix(1 0 0 -1 0 3061.4175)">
		<stop  offset="0" style="stop-color:#DE333B"/>
		<stop  offset="1" style="stop-color:#C31A20"/>
	</linearGradient>
	<path class="st21" d="M2485.8,2352.3c-8.4-9.1-19.2-13.7-32.4-13.7c-26.3,0-41.6,16.4-41.6,42.9c0,7.3,1.6,14.2,4.8,20.8h-23.3
		h-4.4h-29c-3.9-41.1-21.7-61.7-53.4-61.7c-17.8,0-32.2,7.3-43.2,21.7l1.4-73.3H2241l0.7,113.3h-18.5h-4.3h-31.7
		c-6.2,0-10.5-0.7-13.5-2.3c16-13.2,28.8-29,38.1-47.1c-15.8-15.5-39.7-24.9-65.1-24.9c-21.2,0-40.2,6.2-57.1,18.5v18.7
		c16.7,0.9,33.3,11.4,50,31.3c-8.9,3.9-17.6,5.7-26,5.7h-38.9c-17.5-0.6-28.3-10.5-32.6-29.7c-2.1-9.6-6.4-17.4-13.5-23.5
		c-8-7.1-17.6-10.5-29-10.5c-20.3,0-33.3,8.7-39.1,26.3h-12.3h-9.1c-20.1,0-30.2,10.1-29.9,29.9l1.1,79.2h24l-0.9-66.5
		c-0.2-6.4,0.5-11,1.6-13.5c2.1-3.6,5.9-5.5,11.7-5.5h11.9c1.6,10.1,5.9,18.5,13.2,25.1c7.8,7.1,17.6,10.7,29.7,10.7
		c17.1,0,29.2-6.6,36.3-19.9c8.4,13.4,20.7,20,36.3,19.9l0,0h0.2h4.1h35.4c12.6,0,25.8-3.6,39.3-11c6.2,7.3,13.9,11,23.3,11h42.5
		h4.3H2389h4.4h62.8c25.6,0,40.6-16.4,40.6-42.9C2496.8,2370.3,2493.1,2360.5,2485.8,2352.3z M2001.6,2404.8
		c-4.8,0-9.1-1.8-12.6-5.7c-3.9-4.3-5.9-10.3-5.9-17.4c0-7.3,1.8-13,5.2-17.4c3.2-3.9,7.3-5.7,12.1-5.7c5,0,9.4,1.8,12.8,5.7
		c3.9,4.3,5.9,10.3,5.9,17.4C2019.2,2396.4,2011.7,2404.8,2001.6,2404.8z M2158.3,2384.3c-11.4-15.5-23.5-25.1-36.3-28.6
		c7.5-3.4,16-5.2,25.1-5.2c14.4,0,25.6,3,33.8,9.1C2175.2,2369,2167.7,2377.2,2158.3,2384.3z M2259.9,2402.3
		c9.4-26.7,24.9-40,46.1-40c19.6,0,29.7,13.2,29.9,40H2259.9z M2455.4,2404.8c-4.8,0-9.1-1.8-12.6-5.7c-3.9-4.3-5.9-10.3-5.9-17.4
		c0-7.3,1.6-13,5-17.4c3.2-3.9,7.3-5.7,12.6-5.7c4.8,0,9.1,1.8,12.6,5.7c3.9,4.3,5.9,10.3,5.9,17.4
		C2473,2396.4,2465.5,2404.8,2455.4,2404.8z"/>
</g>
<g>
	
		<linearGradient id="SVGID_23_" gradientUnits="userSpaceOnUse" x1="874.38" y1="479.0875" x2="980.57" y2="479.0875" gradientTransform="matrix(1 0 0 -1 0 3061.4175)">
		<stop  offset="0" style="stop-color:#DE333B"/>
		<stop  offset="1" style="stop-color:#C31A20"/>
	</linearGradient>
	<path class="st22" d="M917.5,2518.9l-43.1,126.9h16.9l13.2-39.9h45l13.6,39.9h17.5l-43.3-126.9H917.5z M907.9,2593.1l12.4-36.7
		c2.5-7.7,4.5-15.4,6.4-23h0.4c1.9,7.3,3.8,14.9,6.6,23.2l12.4,36.5L907.9,2593.1L907.9,2593.1z"/>
	
		<linearGradient id="SVGID_24_" gradientUnits="userSpaceOnUse" x1="999.21" y1="479.0874" x2="1069.8199" y2="479.0874" gradientTransform="matrix(1 0 0 -1 0 3061.4175)">
		<stop  offset="0" style="stop-color:#DE333B"/>
		<stop  offset="1" style="stop-color:#C31A20"/>
	</linearGradient>
	<polygon class="st23" points="1015.6,2518.9 999.2,2518.9 999.2,2645.8 1069.8,2645.8 1069.8,2632 1015.6,2632 	"/>
	
		<linearGradient id="SVGID_25_" gradientUnits="userSpaceOnUse" x1="1071.51" y1="466.5674" x2="1118.01" y2="466.5674" gradientTransform="matrix(1 0 0 -1 0 3061.4175)">
		<stop  offset="0" style="stop-color:#DE333B"/>
		<stop  offset="1" style="stop-color:#C31A20"/>
	</linearGradient>
	<rect x="1071.5" y="2588.7" class="st24" width="46.5" height="12.2"/>
	
		<linearGradient id="SVGID_26_" gradientUnits="userSpaceOnUse" x1="1114.0601" y1="479.0874" x2="1208.01" y2="479.0874" gradientTransform="matrix(1 0 0 -1 0 3061.4175)">
		<stop  offset="0" style="stop-color:#DE333B"/>
		<stop  offset="1" style="stop-color:#C31A20"/>
	</linearGradient>
	<polygon class="st25" points="1208,2518.9 1114.1,2518.9 1114.1,2532.8 1152.7,2532.8 1152.7,2645.8 1169.2,2645.8 1169.2,2532.8 
		1208,2532.8 	"/>
	
		<linearGradient id="SVGID_27_" gradientUnits="userSpaceOnUse" x1="1198.41" y1="479.0875" x2="1304.6001" y2="479.0875" gradientTransform="matrix(1 0 0 -1 0 3061.4175)">
		<stop  offset="0" style="stop-color:#DE333B"/>
		<stop  offset="1" style="stop-color:#C31A20"/>
	</linearGradient>
	<path class="st26" d="M1241.5,2518.9l-43.1,126.9h16.9l13.2-39.9h45l13.6,39.9h17.5l-43.3-126.9H1241.5z M1231.9,2593.1l12.4-36.7
		c2.4-7.7,4.5-15.4,6.4-23h0.4c1.9,7.3,3.8,14.9,6.6,23.2l12.4,36.5L1231.9,2593.1L1231.9,2593.1z"/>
	
		<linearGradient id="SVGID_28_" gradientUnits="userSpaceOnUse" x1="1313.2601" y1="478.0522" x2="1369.1802" y2="478.0522" gradientTransform="matrix(1 0 0 -1 0 3061.4175)">
		<stop  offset="0" style="stop-color:#DE333B"/>
		<stop  offset="1" style="stop-color:#C31A20"/>
	</linearGradient>
	<path class="st27" d="M1352.8,2602.5c0,24.9-8.7,31.4-23.3,31.4c-5.5,0-10.3-1.1-13.7-2.4l-2.4,13.4c4.1,1.7,11.5,3,17.5,3
		c21.8,0,38.4-10.4,38.4-44.1v-84.9h-16.4L1352.8,2602.5L1352.8,2602.5z"/>
	
		<linearGradient id="SVGID_29_" gradientUnits="userSpaceOnUse" x1="1436.4001" y1="479.5525" x2="1519.0601" y2="479.5525" gradientTransform="matrix(1 0 0 -1 0 3061.4175)">
		<stop  offset="0" style="stop-color:#DE333B"/>
		<stop  offset="1" style="stop-color:#C31A20"/>
	</linearGradient>
	<path class="st28" d="M1490.6,2585.3v-0.6c13.4-4.5,23.9-15.6,23.9-32.4c0-9.8-3.6-18.4-10-24.1c-7.9-7.2-19.2-10.4-36.7-10.4
		c-11.3,0-23.2,0.9-31.4,2.6v125.2h16.4v-55h15.4c14.9,0.6,21.7,7.2,25.4,24.7c3.6,15.8,6.4,26.7,8.5,30.3h16.9
		c-2.6-4.9-5.7-17.1-9.8-34.8C1506.2,2597.8,1500.4,2588.7,1490.6,2585.3z M1469.5,2578.4h-16.8v-46.3c2.6-0.8,8.3-1.5,16.2-1.5
		c17.3,0.2,29.2,7.3,29.2,23.7C1498.2,2568.8,1487,2578.4,1469.5,2578.4z"/>
	
		<linearGradient id="SVGID_30_" gradientUnits="userSpaceOnUse" x1="1537.6899" y1="479.0874" x2="1609.05" y2="479.0874" gradientTransform="matrix(1 0 0 -1 0 3061.4175)">
		<stop  offset="0" style="stop-color:#DE333B"/>
		<stop  offset="1" style="stop-color:#C31A20"/>
	</linearGradient>
	<polygon class="st29" points="1554.1,2586.3 1603.4,2586.3 1603.4,2572.7 1554.1,2572.7 1554.1,2532.6 1606.2,2532.6 
		1606.2,2518.9 1537.7,2518.9 1537.7,2645.8 1609.1,2645.8 1609.1,2632 1554.1,2632 	"/>
	
		<linearGradient id="SVGID_31_" gradientUnits="userSpaceOnUse" x1="1623.9199" y1="479.1873" x2="1700.73" y2="479.1873" gradientTransform="matrix(1 0 0 -1 0 3061.4175)">
		<stop  offset="0" style="stop-color:#DE333B"/>
		<stop  offset="1" style="stop-color:#C31A20"/>
	</linearGradient>
	<path class="st30" d="M1668.3,2573.9c-17.5-6.8-25.2-12.6-25.2-24.5c0-8.7,6.6-19,23.9-19c11.5,0,20,3.8,24.1,6l4.5-13.4
		c-5.7-3.2-15.1-6.2-28.1-6.2c-24.7,0-41,14.7-41,34.5c0,17.9,12.8,28.6,33.5,36c17.1,6.6,23.9,13.4,23.9,25.2
		c0,12.8-9.8,21.6-26.6,21.6c-11.3,0-22-3.8-29.4-8.3l-4.1,13.7c6.8,4.5,20.2,8.1,32.4,8.1c29.9,0,44.4-16.9,44.4-36.5
		C1700.7,2592.5,1689.8,2582.1,1668.3,2573.9z"/>
	
		<linearGradient id="SVGID_32_" gradientUnits="userSpaceOnUse" x1="1708.64" y1="479.0874" x2="1802.6" y2="479.0874" gradientTransform="matrix(1 0 0 -1 0 3061.4175)">
		<stop  offset="0" style="stop-color:#DE333B"/>
		<stop  offset="1" style="stop-color:#C31A20"/>
	</linearGradient>
	<polygon class="st31" points="1802.6,2518.9 1708.6,2518.9 1708.6,2532.8 1747.2,2532.8 1747.2,2645.8 1763.8,2645.8 
		1763.8,2532.8 1802.6,2532.8 	"/>
	
		<linearGradient id="SVGID_33_" gradientUnits="userSpaceOnUse" x1="1792.99" y1="479.0875" x2="1899.1901" y2="479.0875" gradientTransform="matrix(1 0 0 -1 0 3061.4175)">
		<stop  offset="0" style="stop-color:#DE333B"/>
		<stop  offset="1" style="stop-color:#C31A20"/>
	</linearGradient>
	<path class="st32" d="M1836.1,2518.9l-43.1,126.9h16.9l13.2-39.9h45l13.6,39.9h17.5l-43.3-126.9H1836.1z M1826.5,2593.1l12.4-36.7
		c2.4-7.7,4.5-15.4,6.4-23h0.4c1.9,7.3,3.8,14.9,6.6,23.2l12.4,36.5L1826.5,2593.1L1826.5,2593.1z"/>
	
		<linearGradient id="SVGID_34_" gradientUnits="userSpaceOnUse" x1="1912.36" y1="478.0525" x2="2005.9301" y2="478.0525" gradientTransform="matrix(1 0 0 -1 0 3061.4175)">
		<stop  offset="0" style="stop-color:#DE333B"/>
		<stop  offset="1" style="stop-color:#C31A20"/>
	</linearGradient>
	<path class="st33" d="M1989.4,2594c0,28.1-12.1,40.5-30.9,40.5c-16.9,0-29.6-12.1-29.6-40.5v-75.1h-16.6v74.8
		c0,39.4,19.6,54.2,45.6,54.2c27.5,0,48-16,48-55v-74h-16.6L1989.4,2594L1989.4,2594z"/>
	
		<linearGradient id="SVGID_35_" gradientUnits="userSpaceOnUse" x1="2034.3701" y1="479.5525" x2="2117.0198" y2="479.5525" gradientTransform="matrix(1 0 0 -1 0 3061.4175)">
		<stop  offset="0" style="stop-color:#DE333B"/>
		<stop  offset="1" style="stop-color:#C31A20"/>
	</linearGradient>
	<path class="st34" d="M2088.6,2585.3v-0.6c13.4-4.5,23.9-15.6,23.9-32.4c0-9.8-3.6-18.4-10-24.1c-7.9-7.2-19.2-10.4-36.7-10.4
		c-11.3,0-23.2,0.9-31.4,2.6v125.2h16.4v-55h15.4c14.9,0.6,21.6,7.2,25.4,24.7c3.6,15.8,6.4,26.7,8.5,30.3h16.9
		c-2.6-4.9-5.6-17.1-9.8-34.8C2104.2,2597.8,2098.4,2588.7,2088.6,2585.3z M2067.5,2578.4h-16.8v-46.3c2.6-0.8,8.3-1.5,16.2-1.5
		c17.3,0.2,29.2,7.3,29.2,23.7C2096.1,2568.8,2085,2578.4,2067.5,2578.4z"/>
	
		<linearGradient id="SVGID_36_" gradientUnits="userSpaceOnUse" x1="2126.99" y1="479.0875" x2="2233.1899" y2="479.0875" gradientTransform="matrix(1 0 0 -1 0 3061.4175)">
		<stop  offset="0" style="stop-color:#DE333B"/>
		<stop  offset="1" style="stop-color:#C31A20"/>
	</linearGradient>
	<path class="st35" d="M2170.1,2518.9l-43.1,126.9h16.9l13.2-39.9h45l13.6,39.9h17.5l-43.3-126.9H2170.1z M2160.5,2593.1l12.4-36.7
		c2.4-7.7,4.5-15.4,6.4-23h0.4c1.9,7.3,3.8,14.9,6.6,23.2l12.4,36.5L2160.5,2593.1L2160.5,2593.1z"/>
	
		<linearGradient id="SVGID_37_" gradientUnits="userSpaceOnUse" x1="2251.8201" y1="479.0775" x2="2347.0901" y2="479.0775" gradientTransform="matrix(1 0 0 -1 0 3061.4175)">
		<stop  offset="0" style="stop-color:#DE333B"/>
		<stop  offset="1" style="stop-color:#C31A20"/>
	</linearGradient>
	<path class="st36" d="M2331.7,2572c0,19.8,0.4,35.2,1.9,52.1l-0.4,0.2c-6-13-13.4-26.4-22.8-41.2l-40.7-64.2h-17.9v126.9h15.4
		v-54.2c0-21.1-0.4-36.3-1.3-52.3l0.6-0.2c6.4,13.7,14.9,28.2,23.7,42.4l40.3,64.4h16.6v-126.9h-15.4L2331.7,2572L2331.7,2572z"/>
	
		<linearGradient id="SVGID_38_" gradientUnits="userSpaceOnUse" x1="2361.22" y1="479.0874" x2="2455.1699" y2="479.0874" gradientTransform="matrix(1 0 0 -1 0 3061.4175)">
		<stop  offset="0" style="stop-color:#DE333B"/>
		<stop  offset="1" style="stop-color:#C31A20"/>
	</linearGradient>
	<polygon class="st37" points="2361.2,2518.9 2361.2,2532.8 2399.8,2532.8 2399.8,2645.8 2416.4,2645.8 2416.4,2532.8 
		2455.2,2532.8 2455.2,2518.9 	"/>
</g>
</svg>
