<svg id="Layer_1" data-name="Layer 1" xmlns="http://www.w3.org/2000/svg" xmlns:xlink="http://www.w3.org/1999/xlink" viewBox="0 0 1261.67 513.42"><defs><style>.cls-1{fill:url(#linear-gradient);}.cls-2{fill:url(#linear-gradient-2);}.cls-3,.cls-5{fill:#1d1d1b;}.cls-3{stroke:#fff;stroke-width:11px;}.cls-3,.cls-4,.cls-5{stroke-miterlimit:10;}.cls-4{fill:#009fe3;}.cls-4,.cls-5{stroke:#ececec;stroke-width:1.8px;}</style><linearGradient id="linear-gradient" x1="136.56" y1="778.91" x2="1385.31" y2="602.74" gradientTransform="matrix(1, 0, 0, -1, 0, 1452.66)" gradientUnits="userSpaceOnUse"><stop offset="0" stop-color="#016fff"/><stop offset="0.47" stop-color="#0539bf"/><stop offset="0.85" stop-color="#043196"/><stop offset="1" stop-color="#072051"/></linearGradient><linearGradient id="linear-gradient-2" x1="602.71" y1="744.69" x2="1388.76" y2="744.69" gradientTransform="matrix(1, 0, 0, -1, 0, 1452.66)" gradientUnits="userSpaceOnUse"><stop offset="0" stop-color="#0539bf"/><stop offset="0.46" stop-color="#0531a0"/><stop offset="1" stop-color="#072051"/></linearGradient></defs><path class="cls-1" d="M623.59,770.52c80.78,14.52,166.1-15.43,177-117.09,3.63-30.86-.91-62.63-4.54-86.23l-71.7,26.32c2.72,14.52,12.71,95.31-63.54,110.74-58.09,6.35-101.66-34.49-100.75-118.91h-128c-26.33,33.59-36.31,149.77,35.4,213.31-31.77,10.89-73.53,19.06-129.8,20-70.8.91-138-21.78-138-98,0-52.65,49.92-85.33,78.06-94.4l-15.43-39.94c-16.34-1.81-30.86-2.72-47.2,2.72-58.09,19.06-88,69-88,138,3.63,106.2,88,170.64,207.86,171.55,109.82,2.72,210.58-26.32,229.64-100.75l-.91-10c-28.14-20-78.06-70.79-77.15-128,0-10.89,16.34-11.8,21.78-8.17C511.94,691.55,551,757.81,623.59,770.52Z" transform="translate(-127.09 -502.16)"/><path class="cls-2" d="M1327,776.87c-35.4,12.71-122.53,34.49-153.39-36.3-34.5-87.14,51.73-155.22,108.92-152.49,18.15.9,31.77,8.16,49,23.6l57.19-58.1c-9.08-12.7-34.5-30-47.2-37.21-21.79-10.89-57.19-19.06-102.57-10.89-71.71,13.61-156.12,82.6-157,192.42,0,45.39,25.42,85.33,60.82,111.65-77.16,0-124.36-38.12-124.36-118l-.9-79.87c-76.25-1.82-135.25,39-168.83,118.9C825.09,793.21,777,834.06,714.35,837.69c-30.86,1.81-52.64-5.45-75.33-20l-36.31,58.09c39.94,26.32,97.12,43.57,157,36.31C885.9,898.5,908.6,787.76,932.2,741.47c9.07-18.15,19.06-32.67,29-37.21,0,32.67-10,123.44,89,155.21C1121,887.61,1219,884,1348.82,835.87,1347,825.89,1335.2,795,1327,776.87Z" transform="translate(-127.09 -502.16)"/><path class="cls-3" d="M669,760.55c0-25.42,20.88-48.11,45.38-48.11,25.42-.91,48.11,19.06,47.2,48.11,0,24.51-21.78,48.11-52.64,48.11C686.22,806.84,668.06,787.78,669,760.55Z" transform="translate(-127.09 -502.16)"/><path class="cls-4" d="M305.9,926.64c22.69,0,40.85,18.15,41.75,41.75,0,26.32-19.06,45.38-43.56,46.29-21.79,0-39.94-16.34-39.94-41.75C264.15,949.33,282.3,928.45,305.9,926.64Z" transform="translate(-127.09 -502.16)"/><path class="cls-5" d="M413.91,925.73c21.79.91,40.85,16.34,40.85,45.38,0,23.6-19.06,43.57-44.48,43.57-21.78,0-40.84-16.34-41.75-43.57C368.53,946.61,388.5,927.55,413.91,925.73Z" transform="translate(-127.09 -502.16)"/></svg>