<?xml version="1.0" encoding="utf-8"?>
<!-- Generator: Adobe Illustrator 25.0.1, SVG Export Plug-In . SVG Version: 6.00 Build 0)  -->
<svg version="1.1" id="Layer_1" xmlns="http://www.w3.org/2000/svg" xmlns:xlink="http://www.w3.org/1999/xlink" x="0px" y="0px"
	 viewBox="0 0 3061.4 3061.4" style="enable-background:new 0 0 3061.4 3061.4;" xml:space="preserve">
<style type="text/css">
	.st0{fill:#F7B322;}
	.st1{fill:#FFFFFF;}
	.st2{fill:#FCF9FB;}
	.st3{fill:#ECA628;}
</style>
<path class="st0" d="M949.1,1274.7L891,1273c-5.1,1.7-8.5,10.3-10.3,15.4l-210.3,571.1c1.7,10.3,12,12,126.5,12
	c42.8-1.7,44.5-1.7,49.6-10.3c3.4-5.1,8.5-20.5,12-34.2c8.5-35.9,10.3-41,22.2-42.8h102.6c51.3,0,80.4,1.7,83.8,1.7
	c6.8,3.4,13.7,22.2,18.8,51.3c3.4,20.5,8.6,29.1,20.5,32.5s157.3,5.1,162.4,0c5.1,0,6.8-6.8,3.4-20.5
	c-5.1-20.5-203.5-535.2-227.4-569.4c-3.4-8.6-5.1-6.8-46.2-5.1C998.7,1274.7,949.1,1274.7,949.1,1274.7z M969.7,1481.6
	c6.8,5.1,44.5,128.2,46.2,150.5c1.7,17.1,0,17.1-51.3,17.1c-39.3,0-51.3-1.7-51.3-8.6C916.6,1620.1,962.8,1485,969.7,1481.6z"/>
<path class="st0" d="M1345.8,1285v10.3l6.8,78.7c3.4,46.2,6.8,152.2,5.1,321.5c-1.7,75.2-17.1,111.2-58.1,143.6
	c-22.2,18.8-25.7,25.7-13.7,32.5l53,44.5l42.8,53c8.6,8.6,56.4-30.8,83.8-78.7c22.2-39.3,34.2-73.5,41-111.2
	c6.8-44.5,10.3-75.2,10.3-258.2l1.7-232.6c-1.7-3.4-10.3-5.1-39.3-3.4h-51.3C1364.7,1283.2,1347.6,1283.2,1345.8,1285z"/>
<path class="st0" d="M249.8,1279.8c-12,0-10.3,39.3-12,73.5c-8.6,30.8-15.4,66.7-12,71.8l126.5-6.8h12l1.7,123.1
	c1.7,71.8-3.4,150.5-5.1,205.2v102.6c0,17.1,0,15.4,5.1,18.8s39.3,3.4,71.8,3.4l59.9-1.7l29.1-3.4c5.1,0,5.1-5.1,5.1-44.5
	l-6.8-213.7l1.7-179.6c1.7-13.7,1.7-13.7,8.5-12l124.8,1.7c3.4-3.4,0-32.5-3.4-65l1.7-70.1l-3.4-5.1l-150.5,8.6
	C436.1,1290.1,318.2,1288.4,249.8,1279.8z"/>
<path class="st1" d="M1634.8,1286.7l3.4,169.3l-5.1,152.2l3.4,1.7h47.9c27.4,0,41,0,42.8-1.7l-1.7-109.4
	c-1.7-71.8,0-30.8,71.8,111.2c3.4,3.4,6.8,3.4,20.5,3.4c5.1,0,6.8-8.6,20.5-39.3l44.5-107.7c3.4-18.8,8.6-18.8,8.6-1.7l-1.7,140.2
	c1.7,5.1,0,5.1,47.9,5.1h47.9l-3.4-164.2l1.7-162.4c0-5.1-8.6-5.1-30.8-3.4h-51.3l-5.1,5.1l-76.9,157.3
	c-10.3,22.2-12,20.5-49.6-61.6l-42.8-94.1l-5.1-6.8h-34.2l-49.6,1.7L1634.8,1286.7L1634.8,1286.7z"/>
<path class="st2" d="M2542.8,1281.5"/>
<path class="st2" d="M2542.8,1281.5h-1.7v1.7C2536,1283.2,2541.1,1281.5,2542.8,1281.5z"/>
<path class="st2" d="M2542.8,1281.5h-3.4h1.7H2542.8z"/>
<path class="st1" d="M2542.8,1281.5h5.1c12-1.7,126.5-1.7,162.4,5.1c66.7,13.7,116.3,59.8,126.5,145.3
	c3.4,71.8-34.2,141.9-99.2,167.6c-29.1,12-54.7,12-140.2,12l-56.4-1.7h-1.7h3.4h-1.7h-10.3h8.6h-3.4h3.4h1.7h-1.7h3.4h-1.7h-1.7
	h-1.7h1.7h-1.7h1.7h-10.3h12h-3.4h1.7l-8.6-1.7c-1.7-1.7,5.1-83.8,10.3-85.5C2539.4,1456,2541.1,1349.9,2542.8,1281.5L2542.8,1281.5
	z M2628.3,1536.3c47.9,6.8,118-3.4,118-92.3c0-65-47.9-102.6-114.6-88.9c-5.1,1.7-5.1,1.7-5.1,73.5c0,39.3,1.7,88.9,1.7,102.6
	V1536.3z"/>
<path class="st1" d="M2122.2,1375.6c37.6-5.1,82.1-3.4,106,25.7c25.6,22.2,32.5,59.8,25.6,116.3c-12,61.6-56.4,97.5-131.7,94.1
	c-51.3-3.4-112.9-47.9-106-131.7C2021.3,1420,2058.9,1382.4,2122.2,1375.6z M2099.9,1493.6c0,61.6,76.9,68.4,80.4,3.4
	c0-58.1-76.9-71.8-85.5-5.1L2099.9,1493.6z"/>
<path class="st1" d="M2354.7,1375.6c63.3-8.6,135.1,15.4,152.2,99.2c8.6,112.9-70.1,143.6-136.8,136.8
	c-54.7-3.4-104.3-47.9-99.2-124.8C2274.4,1425.2,2317.1,1382.4,2354.7,1375.6z M2341,1493.6c0,61.6,78.7,68.4,82.1,5.1
	c0-58.1-73.5-75.2-82.1-8.6V1493.6z"/>
<path class="st1" d="M1973.4,1666.3l-121.4,73.5c-18.8,13.7-12,41,6.8,46.2c18.8,5.1,29.1-10.3,41-15.4
	c51.3,66.7,141.9,116.3,229.1,128.2c104.3,22.2,295.8,25.7,420.6-100.9l25.6-30.8l25.6,17.1c34.2,15.4,56.4-29.1,22.2-47.9
	l-114.6-75.2c-27.4-17.1-56.4,12-39.3,37.6l29.1,22.2c-54.7,63.3-153.9,121.4-263.3,118c-90.6-1.7-174.4-30.8-265-116.3l30.8-17.1
	C2024.7,1686.8,2011,1647.5,1973.4,1666.3z"/>
<path class="st3" d="M2033.2,1079.8c-15.4,1.7-35.9,30.8-3.4,34.2C2041.8,1115.7,2052.1,1095.2,2033.2,1079.8z"/>
<path class="st3" d="M2257.2,1088.3c-22.2,6.8-27.4,29.1,0,34.2C2276.1,1122.5,2282.9,1091.7,2257.2,1088.3z"/>
<path class="st3" d="M2035,1120.8c15.4,41,23.9,80.4,15.4,136.8c13.7-30.8,13.7-61.6,13.7-95.8c23.9,12,56.4,53,59.9,70.1
	c-51.3,71.8,32.5,87.2,25.6,6.8c20.5-20.5,58.1-46.2,80.4-61.6c6.8,6.8,17.1,58.1,17.1,88.9c-83.8,46.2-39.3,87.2,1.7,41l8.6-25.7
	c42.8-15.4,73.5-15.4,123.1-10.3c-44.5,25.7-78.7,42.8-124.8,83.8c-49.6-27.4-130-47.9-188.1-17.1c82.1,0,136.8,0,189.8,56.4
	c41-41,145.4-104.3,183-128.2c-44.5-22.2-111.1-25.7-183-5.1c0-46.2,1.7-71.8-10.3-130c-34.2,18.8-82.1,51.3-104.3,85.5
	C2120.4,1170.4,2086.2,1132.8,2035,1120.8z M2137.6,1285c-6.8,0-17.1-3.4,0-27.4C2147.8,1247.3,2144.4,1276.4,2137.6,1285z
	 M2231.6,1312.3c-35.9,13.7,3.4-27.4,8.6-23.9C2240.1,1296.9,2231.6,1312.3,2231.6,1312.3z"/>
<path class="st3" d="M2462.4,1250.8c-27.4-3.4-23.9,27.4-6.8,29.1C2483,1285,2493.2,1252.5,2462.4,1250.8z"/>
</svg>
