<?xml version="1.0" encoding="utf-8"?>
<!-- Generator: Adobe Illustrator 25.0.1, SVG Export Plug-In . SVG Version: 6.00 Build 0)  -->
<svg version="1.1" id="Layer_1" xmlns="http://www.w3.org/2000/svg" xmlns:xlink="http://www.w3.org/1999/xlink" x="0px" y="0px"
	 viewBox="0 0 3061.42 3061.42" style="enable-background:new 0 0 3061.42 3061.42;" xml:space="preserve">
<style type="text/css">
	.st0{fill:#FCF9FB;}
	.st1{fill:#F7B322;}
</style>
<path class="st0" d="M949.13,1274.69l-58.14-1.71c-5.13,1.71-8.55,10.26-10.26,15.39L670.41,1859.5
	c1.71,10.26,11.97,11.97,126.54,11.97c42.75-1.71,44.46-1.71,49.59-10.26c3.42-5.13,8.55-20.52,11.97-34.2
	c8.55-35.91,10.26-41.04,22.23-42.75h102.6c51.3,0,80.37,1.71,83.79,1.71c6.84,3.42,13.68,22.23,18.81,51.3
	c3.42,20.52,8.55,29.07,20.52,32.49s157.32,5.13,162.45,0c5.13,0,6.84-6.84,3.42-20.52c-5.13-20.52-203.48-535.22-227.42-569.42
	c-3.42-8.55-5.13-6.84-46.17-5.13C998.72,1274.69,949.13,1274.69,949.13,1274.69z M969.65,1481.6
	c6.84,5.13,44.46,128.25,46.17,150.48c1.71,17.1,0,17.1-51.3,17.1c-39.33,0-51.3-1.71-51.3-8.55
	C916.64,1620.11,962.81,1485.02,969.65,1481.6z"/>
<path class="st1" d="M3856.49,2122.84l-58.14-1.71c-5.13,1.71-8.55,10.26-10.26,15.39l-210.32,571.13
	c1.71,10.26,11.97,11.97,126.54,11.97c42.75-1.71,44.46-1.71,49.59-10.26c3.42-5.13,8.55-20.52,11.97-34.2
	c8.55-35.91,10.26-41.04,22.23-42.75h102.6c51.3,0,80.37,1.71,83.79,1.71c6.84,3.42,13.68,22.23,18.81,51.3
	c3.42,20.52,8.55,29.07,20.52,32.49s157.32,5.13,162.45,0c5.13,0,6.84-6.84,3.42-20.52c-5.13-20.52-203.48-535.22-227.42-569.42
	c-3.42-8.55-5.13-6.84-46.17-5.13C3906.08,2122.84,3856.49,2122.84,3856.49,2122.84z M3877.01,2329.75
	c6.84,5.13,44.46,128.25,46.17,150.48c1.71,17.1,0,17.1-51.3,17.1c-39.33,0-51.3-1.71-51.3-8.55
	C3824,2468.25,3870.17,2333.17,3877.01,2329.75z"/>
<path class="st0" d="M1345.84,1284.95v10.26l6.84,78.66c3.42,46.17,6.84,152.19,5.13,321.47c-1.71,75.24-17.1,111.15-58.14,143.64
	c-22.23,18.81-25.65,25.65-13.68,32.49l53.01,44.46l42.75,53.01c8.55,8.55,56.43-30.78,83.79-78.66
	c22.23-39.33,34.2-73.53,41.04-111.15c6.84-44.46,10.26-75.24,10.26-258.2l1.71-232.55c-1.71-3.42-10.26-5.13-39.33-3.42h-51.3
	C1364.65,1283.24,1347.55,1283.24,1345.84,1284.95z"/>
<path class="st0" d="M249.76,1279.82c-11.97,0-10.26,39.33-11.97,73.53c-8.55,30.78-15.39,66.69-11.97,71.82l126.54-6.84h11.97
	l1.71,123.12c1.71,71.82-3.42,150.48-5.13,205.19v102.6c0,17.1,0,15.39,5.13,18.81c5.13,3.42,39.33,3.42,71.82,3.42l59.85-1.71
	l29.07-3.42c5.13,0,5.13-5.13,5.13-44.46l-6.84-213.74l1.71-179.55c1.71-13.68,1.71-13.68,8.55-11.97l124.83,1.71
	c3.42-3.42,0-32.49-3.42-64.98l1.71-70.11l-3.42-5.13l-150.48,8.55C436.15,1290.08,318.16,1288.37,249.76,1279.82z"/>
<path class="st0" d="M1634.83,1286.66l3.42,169.29l-5.13,152.19l3.42,1.71h47.88c27.36,0,41.04,0,42.75-1.71l-1.71-109.44
	c-1.71-71.82,0-30.78,71.82,111.15c3.42,3.42,6.84,3.42,20.52,3.42c5.13,0,6.84-8.55,20.52-39.33l44.46-107.73
	c3.42-18.81,8.55-18.81,8.55-1.71l-1.71,140.22c1.71,5.13,0,5.13,47.88,5.13h47.88l-3.42-164.16l1.71-162.45
	c0-5.13-8.55-5.13-30.78-3.42h-51.3l-5.13,5.13l-76.95,157.32c-10.26,22.23-11.97,20.52-49.59-61.56l-42.75-94.05l-5.13-6.84h-34.2
	l-49.59,1.71L1634.83,1286.66L1634.83,1286.66z"/>
<path class="st0" d="M3705.2,1322.23l3.42,169.29l-5.13,152.19l3.42,1.71h47.88c27.36,0,41.04,0,42.75-1.71l-1.71-109.44
	c-1.71-71.82,0-30.78,71.82,111.15c3.42,3.42,6.84,3.42,20.52,3.42c5.13,0,6.84-8.55,20.52-39.33l44.46-107.73
	c3.42-18.81,8.55-18.81,8.55-1.71l-1.71,140.22c1.71,5.13,0,5.13,47.88,5.13h47.88l-3.42-164.16l1.71-162.45
	c0-5.13-8.55-5.13-30.78-3.42h-51.3l-5.13,5.13l-76.95,157.32c-10.26,22.23-11.97,20.52-49.59-61.56l-42.75-94.05l-5.13-6.84h-34.2
	l-49.59,1.71L3705.2,1322.23L3705.2,1322.23z"/>
<path class="st0" d="M2542.81,1281.53"/>
<path class="st0" d="M2542.81,1281.53h-1.71v1.71C2535.97,1283.24,2541.1,1281.53,2542.81,1281.53z"/>
<path class="st0" d="M2542.81,1281.53h-3.42h1.71H2542.81z"/>
<path class="st0" d="M2542.81,1281.53h5.13c11.97-1.71,126.54-1.71,162.45,5.13c66.69,13.68,116.28,59.85,126.54,145.35
	c3.42,71.82-34.2,141.93-99.18,167.58c-29.07,11.97-54.72,11.97-140.22,11.97l-56.43-1.71h-1.71h3.42h-1.71h-10.26h8.55h-3.42h3.42
	h1.71h-1.71h3.42h-1.71h-1.71h-1.71h1.71h-1.71h1.71h-10.26h11.97h-3.42h1.71l-8.55-1.71c-1.71-1.71,5.13-83.79,10.26-85.5
	C2539.39,1455.95,2541.1,1349.93,2542.81,1281.53L2542.81,1281.53z M2628.31,1536.32c47.88,6.84,117.99-3.42,117.99-92.34
	c0-64.98-47.88-102.6-114.57-88.92c-5.13,1.71-5.13,1.71-5.13,73.53c0,39.33,1.71,88.92,1.71,102.6V1536.32z"/>
<path class="st0" d="M2122.16,1375.58c37.62-5.13,82.08-3.42,106.02,25.65c25.65,22.23,32.49,59.85,25.65,116.28
	c-11.97,61.56-56.43,97.47-131.67,94.05c-51.3-3.42-112.86-47.88-106.02-131.67C2021.28,1420.04,2058.9,1382.42,2122.16,1375.58z
	 M2099.93,1493.57c0,61.56,76.95,68.4,80.37,3.42c0-58.14-76.95-71.82-85.5-5.13C2094.8,1491.86,2099.93,1493.57,2099.93,1493.57z"
	/>
<path class="st0" d="M2354.72,1375.58c63.27-8.55,135.09,15.39,152.19,99.18c8.55,112.86-70.11,143.64-136.8,136.8
	c-54.72-3.42-104.31-47.88-99.18-124.83C2274.35,1425.17,2317.1,1382.42,2354.72,1375.58z M2341.04,1493.57
	c0,61.56,78.66,68.4,82.08,5.13c0-58.14-73.53-75.24-82.08-8.55V1493.57z"/>
<path class="st0" d="M1973.4,1666.27l-121.41,73.53c-18.81,13.68-11.97,41.04,6.84,46.17c18.81,5.13,29.07-10.26,41.04-15.39
	c51.3,66.69,141.93,116.28,229.13,128.25c104.31,22.23,295.82,25.65,420.65-100.89l25.65-30.78l25.65,17.1
	c34.2,15.39,56.43-29.07,22.23-47.88l-114.57-75.24c-27.36-17.1-56.43,11.97-39.33,37.62l29.07,22.23
	c-54.72,63.27-153.9,121.41-263.33,117.99c-90.63-1.71-174.42-30.78-265.04-116.28l30.78-17.1
	C2024.7,1686.79,2011.02,1647.47,1973.4,1666.27z"/>
<path class="st0" d="M2033.25,1079.76c-15.39,1.71-35.91,30.78-3.42,34.2C2041.8,1115.67,2052.06,1095.15,2033.25,1079.76z"/>
<path class="st0" d="M2257.25,1088.31c-22.23,6.84-27.36,29.07,0,34.2C2276.06,1122.51,2282.9,1091.73,2257.25,1088.31z"/>
<path class="st0" d="M2034.96,1120.8c15.39,41.04,23.94,80.37,15.39,136.8c13.68-30.78,13.68-61.56,13.68-95.76
	c23.94,11.97,56.43,53.01,59.85,70.11c-51.3,71.82,32.49,87.21,25.65,6.84c20.52-20.52,58.14-46.17,80.37-61.56
	c6.84,6.84,17.1,58.14,17.1,88.92c-83.79,46.17-39.33,87.21,1.71,41.04l8.55-25.65c42.75-15.39,73.53-15.39,123.12-10.26
	c-44.46,25.65-78.66,42.75-124.83,83.79c-49.59-27.36-129.96-47.88-188.1-17.1c82.08,0,136.8,0,189.81,56.43
	c41.04-41.04,145.35-104.31,182.97-128.25c-44.46-22.23-111.15-25.65-182.97-5.13c0-46.17,1.71-71.82-10.26-129.96
	c-34.2,18.81-82.08,51.3-104.31,85.5C2120.45,1170.39,2086.25,1132.77,2034.96,1120.8z M2137.55,1284.95c-6.84,0-17.1-3.42,0-27.36
	C2147.81,1247.34,2144.39,1276.4,2137.55,1284.95z M2231.6,1312.31c-35.91,13.68,3.42-27.36,8.55-23.94
	C2240.15,1296.92,2231.6,1312.31,2231.6,1312.31z"/>
<path class="st0" d="M2462.44,1250.76c-27.36-3.42-23.94,27.36-6.84,29.07C2482.96,1284.95,2493.22,1252.47,2462.44,1250.76z"/>
</svg>
