<svg xmlns="http://www.w3.org/2000/svg" viewBox="0 0 154 53">
<!-- SVG created with Arrow, by QuiverAI (https://quiver.ai) -->
  <style type="text/css">.cls-0 {fill:#681D03;}
.cls-1 {fill:#F7B322;}
.cls-2 {fill:#FCF9FB;}
.cls-3 {fill:#ECA628;}</style>
  <rect class="cls-0" width="154" height="52.7"/>
  <path class="cls-1" d="m43 11.4-3.4-0.1c-0.3 0.1-0.5 0.6-0.6 0.9l-12.3 33.4c0.1 0.6 0.7 0.7 7.4 0.7 2.5-0.1 2.6-0.1 2.9-0.6 0.2-0.3 0.5-1.2 0.7-2 0.5-2.1 0.6-2.4 1.3-2.5h6c3 0 4.7 0.1 4.9 0.1 0.4 0.2 0.8 1.3 1.1 3 0.2 1.2 0.5 1.7 1.2 1.9s9.2 0.3 9.5 0c0.3 0 0.4-0.4 0.2-1.2-0.3-1.2-11.9-31.3-13.3-33.3-0.2-0.5-0.3-0.4-2.7-0.3h-2.9zm1.2 12.1c0.4 0.3 2.6 7.5 2.7 8.8 0.1 1 0 1-3 1-2.3 0-3-0.1-3-0.5 0.2-1.2 2.9-9.1 3.3-9.3z"/>
  <path class="cls-1" d="m66.2 12v0.6l0.4 4.6c0.2 2.7 0.4 8.9 0.3 18.8-0.1 4.4-1 6.5-3.4 8.4-1.3 1.1-1.5 1.5-0.8 1.9l3.1 2.6 2.5 3.1c0.5 0.5 3.3-1.8 4.9-4.6 1.3-2.3 2-4.3 2.4-6.5 0.4-2.6 0.6-4.4 0.6-15.1l0.1-13.6c-0.1-0.2-0.6-0.3-2.3-0.2h-3c-3.7-0.1-4.7-0.1-4.8 0z"/>
  <path class="cls-1" d="m2.1 11.7c-0.7 0-0.6 2.3-0.7 4.3-0.5 1.8-0.9 3.9-0.7 4.2l7.4-0.4h0.7l0.1 7.2c0.1 4.2-0.2 8.8-0.3 12v6c0 1 0 0.9 0.3 1.1s2.3 0.2 4.2 0.2l3.5-0.1 1.7-0.2c0.3 0 0.3-0.3 0.3-2.6l-0.4-12.5 0.1-10.5c0.1-0.8 0.1-0.8 0.5-0.7l7.3 0.1c0.2-0.2 0-1.9-0.2-3.8l0.1-4.1-0.2-0.3-8.8 0.5c-4 0.2-10.9 0.1-14.9-0.4z"/>
  <path class="cls-2" d="m83.1 12.1 0.2 9.9-0.3 8.9 0.2 0.1h2.8c1.6 0 2.4 0 2.5-0.1l-0.1-6.4c-0.1-4.2 0-1.8 4.2 6.5 0.2 0.2 0.4 0.2 1.2 0.2 0.3 0 0.4-0.5 1.2-2.3l2.6-6.3c0.2-1.1 0.5-1.1 0.5-0.1l-0.1 8.2c0.1 0.3 0 0.3 2.8 0.3h2.8l-0.2-9.6 0.1-9.5c0-0.3-0.5-0.3-1.8-0.2h-3l-0.3 0.3-4.5 9.2c-0.6 1.3-0.7 1.2-2.9-3.6l-2.5-5.5-0.3-0.4h-2l-2.9 0.1-0.2 0.3z"/>
  <path class="cls-2" d="m136.2 11.8z"/>
  <path class="cls-2" d="m136.2 11.8h-0.1v0.1c-0.3 0 0-0.1 0.1-0.1z"/>
  <path class="cls-2" d="m136.2 11.8h-0.2 0.1z"/>
  <path class="cls-2" d="m136.2 11.8h0.3c0.7-0.1 7.4-0.1 9.5 0.3 3.9 0.8 6.8 3.5 7.4 8.5 0.2 4.2-2 8.3-5.8 9.8-1.7 0.7-3.2 0.7-8.2 0.7l-3.3-0.1h-0.1 0.2-0.1-0.6 0.5-0.2 0.2 0.1-0.1 0.2-0.1-0.1-0.1 0.1-0.1 0.1-0.6 0.7-0.2 0.1l-0.5-0.1c-0.1-0.1 0.3-4.9 0.6-5-0.1-3.9 0-10.1 0.1-14.1zm5 14.9c2.8 0.4 6.9-0.2 6.9-5.4 0-3.8-2.8-6-6.7-5.2-0.3 0.1-0.3 0.1-0.3 4.3 0 2.3 0.1 5.2 0.1 6v0.3z"/>
  <path class="cls-2" d="m111.6 17.3c2.2-0.3 4.8-0.2 6.2 1.5 1.5 1.3 1.9 3.5 1.5 6.8-0.7 3.6-3.3 5.7-7.7 5.5-3-0.2-6.6-2.8-6.2-7.7 0.3-3.5 2.5-5.7 6.2-6.1zm-1.3 6.9c0 3.6 4.5 4 4.7 0.2 0-3.4-4.5-4.2-5-0.3l0.3 0.1z"/>
  <path class="cls-2" d="m125.2 17.3c3.7-0.5 7.9 0.9 8.9 5.8 0.5 6.6-4.1 8.4-8 8-3.2-0.2-6.1-2.8-5.8-7.3 0.2-3.6 2.7-6.1 4.9-6.5zm-0.8 6.9c0 3.6 4.6 4 4.8 0.3 0-3.4-4.3-4.4-4.8-0.5v0.2z"/>
  <path class="cls-2" d="m102.9 34.3-7.1 4.3c-1.1 0.8-0.7 2.4 0.4 2.7s1.7-0.6 2.4-0.9c3 3.9 8.3 6.8 13.4 7.5 6.1 1.3 17.3 1.5 24.6-5.9l1.5-1.8 1.5 1c2 0.9 3.3-1.7 1.3-2.8l-6.7-4.4c-1.6-1-3.3 0.7-2.3 2.2l1.7 1.3c-3.2 3.7-9 7.1-15.4 6.9-5.3-0.1-10.2-1.8-15.5-6.8l1.8-1c1.4-1.1 0.6-3.4-1.6-2.3z"/>
  <path class="cls-3" d="m106.4 0c-0.9 0.1-2.1 1.8-0.2 2 0.7 0.1 1.3-1.1 0.2-2z"/>
  <path class="cls-3" d="m119.5 0.5c-1.3 0.4-1.6 1.7 0 2 1.1 0 1.5-1.8 0-2z"/>
  <path class="cls-3" d="m106.5 2.4c0.9 2.4 1.4 4.7 0.9 8 0.8-1.8 0.8-3.6 0.8-5.6 1.4 0.7 3.3 3.1 3.5 4.1-3 4.2 1.9 5.1 1.5 0.4 1.2-1.2 3.4-2.7 4.7-3.6 0.4 0.4 1 3.4 1 5.2-4.9 2.7-2.3 5.1 0.1 2.4l0.5-1.5c2.5-0.9 4.3-0.9 7.2-0.6-2.6 1.5-4.6 2.5-7.3 4.9-2.9-1.6-7.6-2.8-11-1 4.8 0 8 0 11.1 3.3 2.4-2.4 8.5-6.1 10.7-7.5-2.6-1.3-6.5-1.5-10.7-0.3 0-2.7 0.1-4.2-0.6-7.6-2 1.1-4.8 3-6.1 5-1.3-2.7-3.3-4.9-6.3-5.6zm6 9.6c-0.4 0-1-0.2 0-1.6 0.6-0.6 0.4 1.1 0 1.6zm5.5 1.6c-2.1 0.8 0.2-1.6 0.5-1.4 0 0.5-0.5 1.4-0.5 1.4z"/>
  <path class="cls-3" d="m131.5 10c-1.6-0.2-1.4 1.6-0.4 1.7 1.6 0.3 2.2-1.6 0.4-1.7z"/>
</svg>