<svg xmlns="http://www.w3.org/2000/svg" viewBox="0 0 150 74">
<!-- SVG created with Arrow, by QuiverAI (https://quiver.ai) -->
  <style type="text/css">.cls-0 {fill:#FCFCFC;}
.cls-1 {fill:none;stroke:#EFEFEF;stroke-width:0.25;stroke-miterlimit:10;}
.cls-2 {fill:none;stroke:#ECECEC;stroke-width:0.25;stroke-miterlimit:10;}
.cls-3 {fill:url(#SVGID_1_);}
.cls-4 {fill:#01C9FF;}
.cls-5 {fill:#01C8FF;}</style>
  <rect class="cls-0" width="150" height="74"/>
  <line class="cls-1" x2="150" y1="4.2" y2="4.2"/>
  <line class="cls-2" x2="150" y1="39.7" y2="39.7"/>
  <line class="cls-2" x1="32.8" x2="32.8" y2="74"/>
  <line class="cls-2" x1="109" x2="109" y2="74"/>
  <path class="cls-2" d="m42.2 18.1c2-7.7 7.3-14.3 14.9-18.1"/>
  <path class="cls-2" d="m79.4 0c8.6 3.8 14.9 11.9 16.2 21.4l0.2 3.6"/>
  <path class="cls-2" d="m43 16.9c-4-6.4-10.9-11.9-19.4-11.9-11.6 0-20.8 10.3-20.8 22.5 0 4.4 1.1 8.5 2.9 12"/>
  <path class="cls-2" d="m39.8 56.3c2.6 1.9 5.8 3.1 9.2 3.1 4.4 0 8.9-1.2 12-3.9"/>
  <linearGradient id="SVGID_1_" x1="7.223" x2="144.8" y1="27.45" y2="46.86" gradientUnits="userSpaceOnUse">
    <stop stop-color="#016FFF" offset="0"/>
    <stop stop-color="#0539BF" offset=".4743"/>
    <stop stop-color="#043196" offset=".8459"/>
    <stop stop-color="#072051" offset="1"/>
  </linearGradient>
  <path class="cls-3" d="m60.5 40.8c8.9 1.6 18.3-1.7 19.5-12.9 0.4-3.4-0.1-6.9-0.5-9.5l-7.9 2.9c0.3 1.6 1.4 10.5-7 12.2-6.4 0.7-11.2-3.8-11.1-13.1h-14.1c-2.9 3.7-4 16.5 3.9 23.5-3.5 1.2-8.1 2.1-14.3 2.2-7.8 0.1-15.2-2.4-15.2-10.8 0-5.8 5.5-9.4 8.6-10.4l-1.7-4.4c-1.8-0.2-3.4-0.3-5.2 0.3-6.4 2.1-9.7 7.6-9.7 15.2 0.4 11.7 9.7 18.8 22.9 18.9 12.1 0.3 23.2-2.9 25.3-11.1l-0.1-1.1c-3.1-2.2-8.6-7.8-8.5-14.1 0-1.2 1.8-1.3 2.4-0.9 0.4 4.4 4.7 11.7 12.7 13.1z"/>
  <linearGradient id="SVGID_00000162331523142169914710000011724955034522215919_" x1="58.25" x2="144.8" y1="37.42" y2="37.42" gradientUnits="userSpaceOnUse">
    <stop stop-color="#0539BF" offset="0"/>
    <stop stop-color="#0531A0" offset=".4645"/>
    <stop stop-color="#072051" offset="1"/>
  </linearGradient>
  <path d="m138 41.5c-3.9 1.4-13.5 3.8-16.9-4-3.8-9.6 5.7-17.1 12-16.8 2 0.1 3.5 0.9 5.4 2.6l6.3-6.4c-1-1.4-3.8-3.3-5.2-4.1-2.4-1.2-6.3-2.1-11.3-1.2-7.9 1.5-17.2 9.1-17.3 21.2 0 5 2.8 9.4 6.7 12.3-8.5 0-13.7-4.2-13.7-13l-0.1-8.8c-8.4-0.2-14.9 4.3-18.6 13.1-2.6 6.9-7.9 11.4-14.8 11.8-3.4 0.2-5.8-0.6-8.3-2.2l-4 6.4c4.4 2.9 10.7 4.8 17.3 4 13.9-1.5 16.4-13.7 19-18.8 1-2 2.1-3.6 3.2-4.1 0 3.6-1.1 13.6 9.8 17.1 7.8 3.1 18.6 2.7 32.9-2.6-0.2-1.1-1.5-4.5-2.4-6.5z" fill="url(#SVGID_00000162331523142169914710000011724955034522215919_)"/>
  <path class="cls-4" d="m65.5 10.9c0-2.8 2.3-5.3 5-5.3 2.8-0.1 5.3 2.1 5.2 5.3 0 2.7-2.4 5.3-5.8 5.3-2.5-0.2-4.5-2.3-4.4-5.3z"/>
  <path class="cls-5" d="m25.5 58c2.5 0 4.5 2 4.6 4.6 0 2.9-2.1 5-4.8 5.1-2.4 0-4.4-1.8-4.4-4.6 0-2.6 2-4.9 4.6-5.1z"/>
  <path class="cls-5" d="m37.4 57.9c2.4 0.1 4.5 1.8 4.5 5 0 2.6-2.1 4.8-4.9 4.8-2.4 0-4.5-1.8-4.6-4.8 0-2.7 2.2-4.8 5-5z"/>
</svg>