<?xml version="1.0" encoding="utf-8"?>
<!-- Generator: Adobe Illustrator 25.0.1, SVG Export Plug-In . SVG Version: 6.00 Build 0)  -->
<svg version="1.1" id="Layer_1" xmlns="http://www.w3.org/2000/svg" xmlns:xlink="http://www.w3.org/1999/xlink" x="0px" y="0px"
	 viewBox="0 0 3061.42 3061.42" style="enable-background:new 0 0 3061.42 3061.42;" xml:space="preserve">
<style type="text/css">
	.st0{fill:#8B1D1E;}
	.st1{fill:url(#SVGID_1_);}
</style>
<g>
	<path class="st0" d="M1795.91,1124.01c-71.38,38.44-170.22,84.19-302,82.36c-146.42-1.83-377.04-64.06-492.35-73.21
		c-232.45-9.15-349.58,283.69-349.58,283.69s139.1-100.67,353.25-86.02c65.89,3.66,175.71,3.66,181.2,14.64
		c-148.25,51.25-336.77,133.61-501.5,349.58c-87.85,128.12-166.56,316.64-65.89,565.56c120.8,241.6,411.81,411.81,783.36,404.49
		c212.31-3.66,181.2-21.96,75.04-23.79c-183.03,0-419.14-69.55-571.05-194.01c-188.52-148.25-219.63-395.34-157.4-545.43
		c80.53-194.01,316.64-345.92,653.41-459.4c188.52-65.89,269.05-78.7,329.45-181.2L1795.91,1124.01z"/>
	<path class="st0" d="M1460.97,417.52c-21.96,91.51-36.61,197.67-32.95,252.58c7.32,226.96,62.23,450.25,62.23,450.25
		s76.87,12.81,172.05-18.3C1644,1012.36,1517.71,496.22,1460.97,417.52z"/>
	<path class="st0" d="M1294.41,556.62c-67.72,7.32-214.14,45.76-345.92,199.5c-25.62-67.72-173.88-215.97-175.71-210.48
		c-43.93,86.02-106.16,265.39-102.5,272.71c-124.46-73.21-232.45-73.21-302-49.42c118.97,78.7,181.2,214.14,186.69,214.14
		c-7.32-91.51-87.85-168.39-87.85-168.39c47.59-9.15,139.1,12.81,192.18,53.08c-20.13,166.56,100.67,153.74,93.34,56.74
		c-3.66-29.28-25.62-56.74-38.44-75.04c31.11-109.82,76.87-199.5,76.87-199.5c64.06,51.25,126.29,142.76,126.29,142.76
		c-87.85,164.73,40.27,184.86,58.57,102.5c5.49-29.28-5.49-91.51-5.49-91.51c129.95-126.29,215.97-153.74,215.97-153.74
		c-67.72,109.82-135.44,283.69-135.44,281.86c-58.57,12.81-75.04,14.64-157.4,31.11c-168.39,49.42-243.43,148.25-247.09,254.41
		c122.63-186.69,269.05-236.11,452.08-212.31c29.28-53.08,60.4-151.91,67.72-173.88C1195.58,759.78,1244.99,640.81,1294.41,556.62z
		 M714.21,953.79c-18.3,3.66-23.79-64.06-12.81-62.23C712.38,895.22,736.17,950.13,714.21,953.79z M928.35,906.21
		c-18.3-1.83,1.83-62.23,9.15-56.74C939.34,854.96,944.83,911.7,928.35,906.21z"/>
	<path class="st0" d="M342.66,710.36c-45.76-1.83-71.38,64.06-18.3,75.04C381.1,792.73,386.59,717.69,342.66,710.36z"/>
	<path class="st0" d="M770.95,448.63c-47.59,1.83-64.06,71.38-9.15,75.04C814.88,529.17,825.86,448.63,770.95,448.63z"/>
	<path class="st0" d="M1329.19,490.73c-47.59,3.66-56.74,67.72,0,73.21C1378.6,565.77,1387.76,490.73,1329.19,490.73z"/>
	<path class="st0" d="M1197.41,867.77c-31.11,98.84,36.61,122.63,65.89,91.51c31.11,43.93,51.25,56.74,51.25,107.99
		c67.72-43.93,40.27-133.61,16.47-197.67c-12.81-73.21,34.78-45.76,42.1-49.42c12.81-106.16-137.27-102.5-71.38,75.04
		c9.15,32.95,20.13,89.68,16.47,91.51C1305.39,948.3,1285.26,869.6,1197.41,867.77z"/>
	<path class="st0" d="M966.79,2040.98c76.87,43.93,215.97,36.61,263.56,181.2c56.74-64.06,161.07-155.57,157.4-232.45
		c-16.47-75.04-146.42-95.17-228.79-140.93C1071.12,1826.84,1036.34,1956.79,966.79,2040.98z"/>
	<path class="st0" d="M1541.5,1462.61c25.62,292.85,23.79,567.39,0,854.74c120.8-69.55,183.03-49.42,345.92-69.55
		c62.23-12.81,95.17-42.1,118.97-95.17c36.61,76.87,102.5,122.63,237.94,109.82c100.67-5.49,186.69-31.11,226.96-150.08
		c67.72-256.24,0-605.83-128.12-1070.72c-34.78-129.95-34.78-281.86-3.66-477.7l42.1-140.93
		c-29.28,7.32-137.27,104.33-175.71,226.96c-49.42,133.61-69.55,265.39-40.27,514.31c71.38,371.55,226.96,744.93,137.27,801.67
		c-109.82,64.06-188.52,25.62-214.14-100.67c-27.45-109.82-38.44-347.75-53.08-355.08l-139.1,93.34
		c-84.19,126.29,31.11,280.03,25.62,353.25c-3.66,73.21-98.84,69.55-172.05,65.89c16.47-128.12-5.49-492.35-43.93-644.26
		C1656.81,1418.69,1592.75,1433.33,1541.5,1462.61L1541.5,1462.61z"/>
	<path class="st0" d="M1951.48,1125.84c38.44-36.61,131.78-75.04,120.8-162.9c-89.68-42.1-140.93-65.89-208.65-131.78
		c-36.61-3.66-137.27,84.19-137.27,129.95c3.66,60.4,104.33,82.36,181.2,146.42c-29.28,45.76-122.63,87.85-111.65,155.57
		c45.76,82.36,172.05,146.42,239.77,137.27c42.1-1.83,98.84-80.53,109.82-122.63c-12.81-36.61-195.84-118.97-204.99-153.74
		C1940.5,1124.01,1951.48,1125.84,1951.48,1125.84z"/>
	<path class="st0" d="M2639.67,421.18c-53.08,5.49-157.4,188.52-175.71,276.37c-62.23,256.24,43.93,583.86,102.5,874.88
		c65.89,272.71,93.34,486.86,14.64,785.19c40.27-9.15,140.93-144.59,179.37-305.66c43.93-179.37,25.62-366.06,7.32-517.97
		c-64.06-347.75-129.95-552.75-144.59-777.87C2617.71,640.81,2639.67,426.67,2639.67,421.18z"/>
</g>
<linearGradient id="SVGID_1_" gradientUnits="userSpaceOnUse" x1="3772.1423" y1="1229.9019" x2="3772.1423" y2="4291.3193" gradientTransform="matrix(1 0 0 -1 1224.7086 4197.2915)">
	<stop  offset="0" style="stop-color:#DE333B"/>
	<stop  offset="1" style="stop-color:#C31A20"/>
</linearGradient>
<rect x="3466.14" y="-94.03" class="st1" width="3061.42" height="3061.42"/>
<rect x="-1483.35" y="904.91" class="st0" width="1178.96" height="992.68"/>
</svg>
