<?xml version="1.0" encoding="utf-8"?>
<!-- Generator: Adobe Illustrator 25.0.1, SVG Export Plug-In . SVG Version: 6.00 Build 0)  -->
<svg version="1.1" id="Layer_1" xmlns="http://www.w3.org/2000/svg" xmlns:xlink="http://www.w3.org/1999/xlink" x="0px" y="0px"
	 viewBox="0 0 3061.42 3061.42" style="enable-background:new 0 0 3061.42 3061.42;" xml:space="preserve">
<style type="text/css">
	.st0{fill:url(#SVGID_1_);}
	.st1{fill:url(#SVGID_2_);}
	.st2{fill:url(#SVGID_3_);}
	.st3{fill:url(#SVGID_4_);}
	.st4{fill:url(#SVGID_5_);}
	.st5{fill:url(#SVGID_6_);}
	.st6{fill:url(#SVGID_7_);}
	.st7{fill:url(#SVGID_8_);}
	.st8{fill:url(#SVGID_9_);}
	.st9{fill:url(#SVGID_10_);}
	.st10{fill:url(#SVGID_11_);}
	.st11{fill:url(#SVGID_12_);}
	.st12{fill:#8B1D1E;}
	.st13{fill:url(#SVGID_13_);}
	.st14{fill:url(#SVGID_14_);}
	.st15{fill:url(#SVGID_15_);}
	.st16{fill:url(#SVGID_16_);}
	.st17{fill:url(#SVGID_17_);}
	.st18{fill:url(#SVGID_18_);}
	.st19{fill:url(#SVGID_19_);}
	.st20{fill:url(#SVGID_20_);}
	.st21{fill:url(#SVGID_21_);}
	.st22{fill:url(#SVGID_22_);}
	.st23{fill:url(#SVGID_23_);}
	.st24{fill:url(#SVGID_24_);}
	.st25{fill:url(#SVGID_25_);}
	.st26{fill:url(#SVGID_26_);}
	.st27{fill:url(#SVGID_27_);}
	.st28{fill:url(#SVGID_28_);}
	.st29{fill:url(#SVGID_29_);}
	.st30{fill:url(#SVGID_30_);}
	.st31{fill:url(#SVGID_31_);}
	.st32{fill:url(#SVGID_32_);}
	.st33{fill:url(#SVGID_33_);}
	.st34{fill:url(#SVGID_34_);}
	.st35{fill:url(#SVGID_35_);}
	.st36{fill:url(#SVGID_36_);}
	.st37{fill:url(#SVGID_37_);}
	.st38{fill:url(#SVGID_38_);}
	.st39{fill:url(#SVGID_39_);}
</style>
<g>
	<linearGradient id="SVGID_1_" gradientUnits="userSpaceOnUse" x1="748.8592" y1="1632.0575" x2="1665.204" y2="1632.0575">
		<stop  offset="0" style="stop-color:#DE333B"/>
		<stop  offset="1" style="stop-color:#C31A20"/>
	</linearGradient>
	<path class="st0" d="M1665.2,1055.13c-53.44,28.77-127.43,63.03-226.08,61.66c-109.61-1.37-282.26-47.96-368.58-54.81
		c-174.01-6.85-261.7,212.38-261.7,212.38s104.13-75.36,264.44-64.4c49.33,2.74,131.54,2.74,135.65,10.96
		c-110.98,38.36-252.11,100.02-375.43,261.7c-65.77,95.91-124.69,237.04-49.33,423.39c90.43,180.86,308.29,308.29,586.44,302.81
		c158.94-2.74,135.65-16.44,56.18-17.81c-137.02,0-313.77-52.07-427.5-145.24c-141.13-110.98-164.42-295.96-117.84-408.31
		c60.29-145.24,237.04-258.96,489.15-343.91c141.13-49.33,201.42-58.92,246.63-135.65L1665.2,1055.13z"/>
	<linearGradient id="SVGID_2_" gradientUnits="userSpaceOnUse" x1="1389.3784" y1="790.2909" x2="1565.1809" y2="790.2909">
		<stop  offset="0" style="stop-color:#DE333B"/>
		<stop  offset="1" style="stop-color:#C31A20"/>
	</linearGradient>
	<path class="st1" d="M1414.46,526.24c-16.44,68.51-27.4,147.98-24.66,189.08c5.48,169.9,46.59,337.06,46.59,337.06
		s57.55,9.59,128.8-13.7C1551.48,971.55,1456.94,585.16,1414.46,526.24z"/>
	<linearGradient id="SVGID_3_" gradientUnits="userSpaceOnUse" x1="596.4649" y1="873.5232" x2="1289.7751" y2="873.5232">
		<stop  offset="0" style="stop-color:#DE333B"/>
		<stop  offset="1" style="stop-color:#C31A20"/>
	</linearGradient>
	<path class="st2" d="M1289.78,630.37c-50.7,5.48-160.31,34.25-258.96,149.35c-19.18-50.7-130.17-161.68-131.54-157.57
		c-32.88,64.4-79.47,198.68-76.73,204.16c-93.17-54.81-174.01-54.81-226.08-36.99c89.06,58.92,135.65,160.31,139.76,160.31
		c-5.48-68.51-65.77-126.06-65.77-126.06c35.62-6.85,104.13,9.59,143.87,39.74c-15.07,124.69,75.36,115.09,69.88,42.48
		c-2.74-21.92-19.18-42.48-28.77-56.18c23.29-82.21,57.55-149.35,57.55-149.35c47.96,38.36,94.54,106.87,94.54,106.87
		c-65.77,123.32,30.14,138.39,43.85,76.73c4.11-21.92-4.11-68.51-4.11-68.51c97.28-94.54,161.68-115.09,161.68-115.09
		c-50.7,82.21-101.39,212.38-101.39,211.01c-43.85,9.59-56.18,10.96-117.84,23.29c-126.06,36.99-182.23,110.98-184.97,190.45
		c91.8-139.76,201.42-176.75,338.43-158.94c21.92-39.74,45.22-113.72,50.7-130.17C1215.79,782.46,1252.78,693.4,1289.78,630.37z
		 M855.43,927.7c-13.7,2.74-17.81-47.96-9.59-46.59C854.06,883.86,871.87,924.96,855.43,927.7z M1015.74,892.08
		c-13.7-1.37,1.37-46.59,6.85-42.48C1023.96,853.71,1028.07,896.19,1015.74,892.08z"/>
	<linearGradient id="SVGID_4_" gradientUnits="userSpaceOnUse" x1="541.3702" y1="773.7297" x2="599.0865" y2="773.7297">
		<stop  offset="0" style="stop-color:#DE333B"/>
		<stop  offset="1" style="stop-color:#C31A20"/>
	</linearGradient>
	<path class="st3" d="M577.28,745.47c-34.25-1.37-53.44,47.96-13.7,56.18C606.06,807.13,610.17,750.95,577.28,745.47z"/>
	<linearGradient id="SVGID_5_" gradientUnits="userSpaceOnUse" x1="865.2625" y1="577.7208" x2="925.0556" y2="577.7208">
		<stop  offset="0" style="stop-color:#DE333B"/>
		<stop  offset="1" style="stop-color:#C31A20"/>
	</linearGradient>
	<path class="st4" d="M897.9,549.53c-35.62,1.37-47.96,53.44-6.85,56.18C930.79,609.82,939.01,549.53,897.9,549.53z"/>
	<linearGradient id="SVGID_6_" gradientUnits="userSpaceOnUse" x1="1286.4648" y1="608.4615" x2="1346.178" y2="608.4615">
		<stop  offset="0" style="stop-color:#DE333B"/>
		<stop  offset="1" style="stop-color:#C31A20"/>
	</linearGradient>
	<path class="st5" d="M1315.81,581.05c-35.62,2.74-42.48,50.7,0,54.81C1352.8,637.22,1359.65,581.05,1315.81,581.05z"/>
	<linearGradient id="SVGID_7_" gradientUnits="userSpaceOnUse" x1="1211.1699" y1="893.614" x2="1349.2772" y2="893.614">
		<stop  offset="0" style="stop-color:#DE333B"/>
		<stop  offset="1" style="stop-color:#C31A20"/>
	</linearGradient>
	<path class="st6" d="M1217.16,863.3c-23.29,73.99,27.4,91.8,49.33,68.51c23.29,32.88,38.36,42.48,38.36,80.84
		c50.7-32.88,30.14-100.02,12.33-147.98c-9.59-54.81,26.03-34.25,31.51-36.99c9.59-79.47-102.76-76.73-53.44,56.18
		c6.85,24.66,15.07,67.14,12.33,68.51C1298,923.59,1282.92,864.67,1217.16,863.3z"/>
	<linearGradient id="SVGID_8_" gradientUnits="userSpaceOnUse" x1="1044.5133" y1="1736.5546" x2="1359.7245" y2="1736.5546">
		<stop  offset="0" style="stop-color:#DE333B"/>
		<stop  offset="1" style="stop-color:#C31A20"/>
	</linearGradient>
	<path class="st7" d="M1044.51,1741.59c57.55,32.88,161.68,27.4,197.31,135.65c42.48-47.96,120.58-116.47,117.84-174.01
		c-12.33-56.18-109.61-71.25-171.27-105.5C1122.61,1581.28,1096.58,1678.56,1044.51,1741.59z"/>
	<linearGradient id="SVGID_9_" gradientUnits="userSpaceOnUse" x1="1474.7493" y1="1239.4164" x2="2190.7952" y2="1239.4164">
		<stop  offset="0" style="stop-color:#DE333B"/>
		<stop  offset="1" style="stop-color:#C31A20"/>
	</linearGradient>
	<path class="st8" d="M1474.75,1308.61c19.18,219.23,17.81,424.76,0,639.87c90.43-52.07,137.02-36.99,258.96-52.07
		c46.59-9.59,71.25-31.51,89.06-71.25c27.4,57.55,76.73,91.8,178.12,82.21c75.36-4.11,139.76-23.29,169.9-112.35
		c50.7-191.82,0-453.53-95.91-801.55c-26.03-97.28-26.03-211.01-2.74-357.62l31.51-105.5c-21.92,5.48-102.76,78.1-131.54,169.9
		c-36.99,100.02-52.07,198.68-30.14,385.02c53.44,278.15,169.9,557.66,102.76,600.14c-82.21,47.96-141.13,19.18-160.31-75.36
		c-20.55-82.21-28.77-260.33-39.74-265.81l-104.13,69.88c-63.03,94.54,23.29,209.64,19.18,264.44
		c-2.74,54.81-73.99,52.07-128.8,49.33c12.33-95.91-4.11-368.58-32.88-482.3C1561.07,1275.73,1513.11,1286.69,1474.75,1308.61
		L1474.75,1308.61z"/>
	<linearGradient id="SVGID_10_" gradientUnits="userSpaceOnUse" x1="1613.1372" y1="1049.2463" x2="1926.9081" y2="1049.2463">
		<stop  offset="0" style="stop-color:#DE333B"/>
		<stop  offset="1" style="stop-color:#C31A20"/>
	</linearGradient>
	<path class="st9" d="M1781.67,1056.5c28.77-27.4,98.65-56.18,90.43-121.95c-67.14-31.51-105.5-49.33-156.2-98.65
		c-27.4-2.74-102.76,63.03-102.76,97.28c2.74,45.22,78.1,61.66,135.65,109.61c-21.92,34.25-91.8,65.77-83.58,116.47
		c34.25,61.66,128.8,109.61,179.49,102.76c31.51-1.37,73.99-60.29,82.21-91.8c-9.59-27.4-146.61-89.06-153.46-115.09
		C1773.45,1055.13,1781.67,1056.5,1781.67,1056.5z"/>
	<linearGradient id="SVGID_11_" gradientUnits="userSpaceOnUse" x1="2151.145" y1="1253.8032" x2="2407.6304" y2="1253.8032">
		<stop  offset="0" style="stop-color:#DE333B"/>
		<stop  offset="1" style="stop-color:#C31A20"/>
	</linearGradient>
	<path class="st10" d="M2296.86,528.98c-39.74,4.11-117.84,141.13-131.54,206.9c-46.59,191.82,32.88,437.09,76.73,654.95
		c49.33,204.16,69.88,364.47,10.96,587.81c30.14-6.85,105.5-108.24,134.28-228.82c32.88-134.28,19.18-274.04,5.48-387.76
		c-47.96-260.33-97.28-413.79-108.24-582.33C2280.41,693.4,2296.86,533.09,2296.86,528.98z"/>
</g>
<linearGradient id="SVGID_12_" gradientUnits="userSpaceOnUse" x1="3772.1423" y1="1229.9019" x2="3772.1423" y2="4291.3193" gradientTransform="matrix(1 0 0 -1 1224.7086 4197.2915)">
	<stop  offset="0" style="stop-color:#DE333B"/>
	<stop  offset="1" style="stop-color:#C31A20"/>
</linearGradient>
<rect x="3466.14" y="-94.03" class="st11" width="3061.42" height="3061.42"/>
<rect x="-1483.35" y="904.91" class="st12" width="1178.96" height="992.68"/>
<g>
	<linearGradient id="SVGID_13_" gradientUnits="userSpaceOnUse" x1="741.1919" y1="2398.9893" x2="852.6479" y2="2398.9893">
		<stop  offset="0" style="stop-color:#DE333B"/>
		<stop  offset="1" style="stop-color:#C31A20"/>
	</linearGradient>
	<path class="st13" d="M838.72,2349.08c-10.28-16.67-24.44-25.12-42.02-25.12c-13.7,0-25.58,4.34-35.86,13.25l8.45,18.04
		c8.45-6.17,16.44-9.36,24.44-9.36c7.54-0.23,14.16,2.06,19.87,6.4c7.77,5.71,12.56,14.84,14.39,27.41h-43.85
		c-12.56,0-22.84,5.03-31.29,14.85c-7.77,9.36-11.65,20.33-11.65,33.12s4.57,23.75,13.48,32.66c9.14,9.14,20.1,13.7,32.89,13.7
		h31.98v-22.15h-30.15c-6.17,0-11.88-2.28-16.67-6.62c-5.25-4.8-7.99-10.96-7.99-18.5c0-15.3,9.14-24.67,25.35-24.67h62.58
		C852.65,2381.52,848.08,2363.93,838.72,2349.08z"/>
	<linearGradient id="SVGID_14_" gradientUnits="userSpaceOnUse" x1="792.8086" y1="2427.3101" x2="814.7344" y2="2427.3101">
		<stop  offset="0" style="stop-color:#DE333B"/>
		<stop  offset="1" style="stop-color:#C31A20"/>
	</linearGradient>
	<rect x="792.81" y="2415.78" class="st14" width="21.93" height="23.07"/>
	<linearGradient id="SVGID_15_" gradientUnits="userSpaceOnUse" x1="992.8706" y1="2311.0576" x2="1015.0244" y2="2311.0576">
		<stop  offset="0" style="stop-color:#DE333B"/>
		<stop  offset="1" style="stop-color:#C31A20"/>
	</linearGradient>
	<rect x="992.87" y="2299.52" class="st15" width="22.15" height="23.07"/>
	<linearGradient id="SVGID_16_" gradientUnits="userSpaceOnUse" x1="959.7534" y1="2311.0576" x2="981.9077" y2="2311.0576">
		<stop  offset="0" style="stop-color:#DE333B"/>
		<stop  offset="1" style="stop-color:#C31A20"/>
	</linearGradient>
	<rect x="959.75" y="2299.52" class="st16" width="22.15" height="23.07"/>
	<linearGradient id="SVGID_17_" gradientUnits="userSpaceOnUse" x1="882.332" y1="2350.5698" x2="1091.9893" y2="2350.5698">
		<stop  offset="0" style="stop-color:#DE333B"/>
		<stop  offset="1" style="stop-color:#C31A20"/>
	</linearGradient>
	<path class="st17" d="M1091.08,2276.68h-23.98c0,11.19,0.23,29.69,0.46,55.04c0.23,22.38,0.46,40.65,0.46,54.81
		c0,10.28-6.62,15.76-15.53,15.76h-11.64h-3.89h-16.44c-4.57,0-8.68-2.06-12.56-6.39c-4.8-4.8-7.08-11.19-7.08-19.19
		c-0.46-15.3-0.69-27.18-0.69-35.63H976.2l0.46,45.22c0,5.25-2.28,9.36-7.08,12.33c-3.65,2.51-7.54,3.65-11.88,3.65h-22.61h-4.34
		h-12.79c-6.4,0-10.51-6.17-10.51-14.39l-0.91-111.23h-24.21l0.69,120.82c0,8.68,2.74,15.53,7.77,20.33
		c4.34,4.34,9.82,6.62,16.22,6.62h23.75h4.34h31.74c12.56-0.23,24.44-7.31,28.32-18.5c1.14,3.43,3.2,6.62,5.71,9.82
		c4.8,5.71,10.73,8.68,17.59,8.68h18.5h3.89h20.32c19.87,0,30.83-11.42,30.83-29.69c0-14.62-0.23-34.26-0.46-58.93
		C1091.3,2306.83,1091.3,2287.19,1091.08,2276.68z"/>
	<linearGradient id="SVGID_18_" gradientUnits="userSpaceOnUse" x1="1121.6758" y1="2350.5698" x2="1146.7993" y2="2350.5698">
		<stop  offset="0" style="stop-color:#DE333B"/>
		<stop  offset="1" style="stop-color:#C31A20"/>
	</linearGradient>
	<polygon class="st18" points="1121.68,2276.68 1122.82,2424.46 1146.8,2424.46 1145.66,2276.68 	"/>
	<linearGradient id="SVGID_19_" gradientUnits="userSpaceOnUse" x1="1263.2715" y1="2300.5518" x2="1285.4258" y2="2300.5518">
		<stop  offset="0" style="stop-color:#DE333B"/>
		<stop  offset="1" style="stop-color:#C31A20"/>
	</linearGradient>
	<rect x="1263.27" y="2289.02" class="st19" width="22.15" height="23.07"/>
	<linearGradient id="SVGID_20_" gradientUnits="userSpaceOnUse" x1="1397.562" y1="2447.6372" x2="1419.7163" y2="2447.6372">
		<stop  offset="0" style="stop-color:#DE333B"/>
		<stop  offset="1" style="stop-color:#C31A20"/>
	</linearGradient>
	<rect x="1397.56" y="2436.1" class="st20" width="22.15" height="23.07"/>
	<linearGradient id="SVGID_21_" gradientUnits="userSpaceOnUse" x1="1211.6548" y1="2381.5171" x2="1732.377" y2="2381.5171">
		<stop  offset="0" style="stop-color:#DE333B"/>
		<stop  offset="1" style="stop-color:#C31A20"/>
	</linearGradient>
	<path class="st21" d="M1688.98,2338.58c-26.27,0-41.57,16.44-41.57,42.94c0,7.31,1.6,14.16,4.8,20.78h-23.29h-4.35h-29
		c-3.88-41.11-21.7-61.67-53.44-61.67c-17.81,0-32.2,7.31-43.17,21.7l1.37-73.31h-23.75l0.69,113.28h-18.95h-3.89h-16.44
		c-4.57,0-8.68-2.06-12.56-6.39c-4.8-4.8-7.08-11.19-7.08-19.19c-0.46-15.3-0.69-27.18-0.69-35.63h-23.98l0.46,45.22
		c0,5.25-2.28,9.36-7.08,12.33c-3.65,2.51-7.54,3.65-11.88,3.65h-22.83h-4.12h-5.93c-3.88,0-7.54-0.91-10.73-2.97
		c-4.8-2.74-7.31-6.85-7.77-12.33c-2.06-17.36-7.99-31.97-17.59-43.62c-10.51-13.02-23.52-19.41-39.06-19.41
		c-13.7,0-25.81,4.34-36.09,13.25l8.68,18.04c8.22-6.17,16.44-9.36,24.44-9.36c7.31-0.23,13.93,2.06,19.64,6.4
		c7.77,5.71,12.56,14.84,14.62,27.41h-43.85c-12.56,0-23.07,5.03-31.29,14.85c-7.77,9.36-11.65,20.33-11.65,33.12
		s4.57,23.75,13.48,32.66c9.14,9.14,20.1,13.7,32.89,13.7h31.98v-22.15h-30.15c-6.17,0-11.88-2.28-16.67-6.62
		c-5.25-4.8-7.99-10.96-7.99-18.5c0-15.3,9.14-24.67,25.35-24.67h44.99c7.08,14.85,18.5,22.38,34.26,22.38h8.45h4.34h31.74
		c12.56-0.23,24.44-7.31,28.32-18.5c1.14,3.43,3.2,6.62,5.71,9.82c4.8,5.71,10.73,8.68,17.59,8.68h18.5h3.89h166.26h4.35h62.8
		c25.58,0,40.65-16.44,40.65-42.94c0-11.19-3.65-21.01-10.96-29.23C1712.96,2343.15,1702.23,2338.58,1688.98,2338.58z
		 M1495.54,2402.3c9.36-26.72,24.89-39.97,46.14-39.97c19.64,0,29.69,13.25,29.92,39.97H1495.54z M1691.04,2404.81
		c-4.8,0-9.14-1.83-12.56-5.71c-3.88-4.34-5.94-10.28-5.94-17.36c0-7.31,1.6-13.02,5.02-17.36c3.2-3.88,7.31-5.71,12.56-5.71
		c4.8,0,9.14,1.83,12.56,5.71c3.88,4.34,5.94,10.28,5.94,17.36C1708.62,2396.36,1701.09,2404.81,1691.04,2404.81z"/>
	<linearGradient id="SVGID_22_" gradientUnits="userSpaceOnUse" x1="1762.0615" y1="2407.3257" x2="1844.0557" y2="2407.3257">
		<stop  offset="0" style="stop-color:#DE333B"/>
		<stop  offset="1" style="stop-color:#C31A20"/>
	</linearGradient>
	<path class="st22" d="M1804.77,2340.63c-23.52,0-42.71,17.13-42.71,42.94c0,21.7,15.53,40.88,38.14,40.88h15.99
		c-7.31,18.96-25.35,30.6-46.14,30.6c6.4,7.99,11.42,14.39,14.85,18.96c35.86-2.74,59.15-31.52,59.15-70.8v-26.49
		C1844.06,2354.79,1829.89,2340.63,1804.77,2340.63z M1803.63,2402.07c-9.59,0-17.36-8.91-17.36-19.64
		c0-15.53,7.99-25.12,18.5-25.12c7.99,0,14.85,8.91,14.85,13.93c0,1.83,0,12.1,0.23,30.83H1803.63z"/>
	<linearGradient id="SVGID_23_" gradientUnits="userSpaceOnUse" x1="1909.1339" y1="2381.5171" x2="2496.7773" y2="2381.5171">
		<stop  offset="0" style="stop-color:#DE333B"/>
		<stop  offset="1" style="stop-color:#C31A20"/>
	</linearGradient>
	<path class="st23" d="M2485.81,2352.28c-8.45-9.14-19.18-13.7-32.43-13.7c-26.27,0-41.57,16.44-41.57,42.94
		c0,7.31,1.6,14.16,4.8,20.78h-23.29h-4.35h-29c-3.88-41.11-21.7-61.67-53.44-61.67c-17.81,0-32.2,7.31-43.17,21.7l1.37-73.31
		h-23.75l0.69,113.28h-18.5h-4.34h-31.74c-6.17,0-10.51-0.69-13.47-2.28c15.99-13.25,28.78-29.01,38.14-47.05
		c-15.76-15.53-39.74-24.89-65.09-24.89c-21.24,0-40.2,6.17-57.1,18.5v18.73c16.67,0.91,33.34,11.42,50.02,31.29
		c-8.91,3.88-17.59,5.71-26.04,5.71h-38.86c-17.47-0.62-28.34-10.46-32.62-29.69c-2.06-9.59-6.4-17.36-13.48-23.52
		c-7.99-7.08-17.59-10.51-29.01-10.51c-20.33,0-33.35,8.68-39.05,26.27h-12.33h-9.14c-20.1,0-30.15,10.05-29.92,29.92l1.14,79.25
		h23.98l-0.91-66.46c-0.23-6.39,0.46-10.96,1.6-13.47c2.05-3.65,5.94-5.48,11.65-5.48h11.88c1.6,10.05,5.94,18.5,13.25,25.12
		c7.76,7.08,17.59,10.73,29.69,10.73c17.13,0,29.23-6.62,36.31-19.87c8.41,13.41,20.66,20.03,36.31,19.87v0h0.23h4.11h35.4
		c12.56,0,25.81-3.65,39.28-10.96c6.17,7.31,13.93,10.96,23.3,10.96h42.48h4.34h165.8h4.35h62.8c25.58,0,40.65-16.44,40.65-42.94
		C2496.78,2370.33,2493.12,2360.5,2485.81,2352.28z M2001.64,2404.81c-4.8,0-9.14-1.83-12.56-5.71c-3.88-4.34-5.94-10.28-5.94-17.36
		c0-7.31,1.83-13.02,5.25-17.36c3.2-3.88,7.31-5.71,12.11-5.71c5.02,0,9.36,1.83,12.79,5.71c3.88,4.34,5.94,10.28,5.94,17.36
		C2019.22,2396.36,2011.69,2404.81,2001.64,2404.81z M2158.31,2384.26c-11.42-15.53-23.52-25.12-36.31-28.55
		c7.54-3.43,15.99-5.25,25.12-5.25c14.39,0,25.58,2.97,33.8,9.14C2175.21,2368.96,2167.67,2377.18,2158.31,2384.26z M2259.94,2402.3
		c9.36-26.72,24.89-39.97,46.14-39.97c19.64,0,29.69,13.25,29.92,39.97H2259.94z M2455.44,2404.81c-4.8,0-9.14-1.83-12.56-5.71
		c-3.88-4.34-5.94-10.28-5.94-17.36c0-7.31,1.6-13.02,5.02-17.36c3.2-3.88,7.31-5.71,12.56-5.71c4.8,0,9.14,1.83,12.56,5.71
		c3.88,4.34,5.94,10.28,5.94,17.36C2473.02,2396.36,2465.49,2404.81,2455.44,2404.81z"/>
</g>
<g>
	<linearGradient id="SVGID_24_" gradientUnits="userSpaceOnUse" x1="874.3809" y1="2582.3315" x2="980.5698" y2="2582.3315">
		<stop  offset="0" style="stop-color:#DE333B"/>
		<stop  offset="1" style="stop-color:#C31A20"/>
	</linearGradient>
	<path class="st24" d="M917.5,2518.88l-43.12,126.9h16.94l13.18-39.92h45l13.56,39.92h17.51l-43.3-126.9H917.5z M907.89,2593.06
		l12.43-36.71c2.45-7.72,4.52-15.44,6.4-22.97h0.38c1.88,7.34,3.77,14.87,6.59,23.16l12.43,36.53H907.89z"/>
	<linearGradient id="SVGID_25_" gradientUnits="userSpaceOnUse" x1="999.2109" y1="2582.3315" x2="1069.8154" y2="2582.3315">
		<stop  offset="0" style="stop-color:#DE333B"/>
		<stop  offset="1" style="stop-color:#C31A20"/>
	</linearGradient>
	<polygon class="st25" points="1015.59,2518.88 999.21,2518.88 999.21,2645.78 1069.82,2645.78 1069.82,2632.04 1015.59,2632.04 	
		"/>
	<linearGradient id="SVGID_26_" gradientUnits="userSpaceOnUse" x1="1071.5093" y1="2594.8521" x2="1118.0137" y2="2594.8521">
		<stop  offset="0" style="stop-color:#DE333B"/>
		<stop  offset="1" style="stop-color:#C31A20"/>
	</linearGradient>
	<rect x="1071.51" y="2588.73" class="st26" width="46.5" height="12.24"/>
	<linearGradient id="SVGID_27_" gradientUnits="userSpaceOnUse" x1="1114.0615" y1="2582.3315" x2="1208.0127" y2="2582.3315">
		<stop  offset="0" style="stop-color:#DE333B"/>
		<stop  offset="1" style="stop-color:#C31A20"/>
	</linearGradient>
	<polygon class="st27" points="1208.01,2518.88 1114.06,2518.88 1114.06,2532.81 1152.66,2532.81 1152.66,2645.78 1169.23,2645.78 
		1169.23,2532.81 1208.01,2532.81 	"/>
	<linearGradient id="SVGID_28_" gradientUnits="userSpaceOnUse" x1="1198.4111" y1="2582.3315" x2="1304.6001" y2="2582.3315">
		<stop  offset="0" style="stop-color:#DE333B"/>
		<stop  offset="1" style="stop-color:#C31A20"/>
	</linearGradient>
	<path class="st28" d="M1241.53,2518.88l-43.12,126.9h16.94l13.18-39.92h45l13.56,39.92h17.51l-43.3-126.9H1241.53z
		 M1231.92,2593.06l12.43-36.71c2.45-7.72,4.52-15.44,6.4-22.97h0.38c1.88,7.34,3.77,14.87,6.59,23.16l12.43,36.53H1231.92z"/>
	<linearGradient id="SVGID_29_" gradientUnits="userSpaceOnUse" x1="1313.2612" y1="2583.3672" x2="1369.1802" y2="2583.3672">
		<stop  offset="0" style="stop-color:#DE333B"/>
		<stop  offset="1" style="stop-color:#C31A20"/>
	</linearGradient>
	<path class="st29" d="M1352.8,2602.48c0,24.85-8.66,31.44-23.35,31.44c-5.46,0-10.35-1.13-13.74-2.45l-2.45,13.37
		c4.14,1.69,11.49,3.01,17.51,3.01c21.84,0,38.41-10.36,38.41-44.06v-84.91h-16.38V2602.48z"/>
	<linearGradient id="SVGID_30_" gradientUnits="userSpaceOnUse" x1="1436.394" y1="2581.8608" x2="1519.0483" y2="2581.8608">
		<stop  offset="0" style="stop-color:#DE333B"/>
		<stop  offset="1" style="stop-color:#C31A20"/>
	</linearGradient>
	<path class="st30" d="M1490.62,2585.34v-0.56c13.37-4.52,23.91-15.63,23.91-32.38c0-9.79-3.58-18.45-9.98-24.1
		c-7.91-7.16-19.2-10.36-36.71-10.36c-11.3,0-23.16,0.94-31.44,2.64v125.21h16.38v-54.98h15.44c14.87,0.57,21.65,7.16,25.42,24.67
		c3.58,15.82,6.4,26.74,8.47,30.31h16.95c-2.64-4.9-5.65-17.13-9.79-34.83C1506.25,2597.77,1500.41,2588.73,1490.62,2585.34z
		 M1469.53,2578.38h-16.76v-46.32c2.64-0.75,8.28-1.51,16.19-1.51c17.32,0.19,29.18,7.34,29.18,23.72
		C1498.15,2568.78,1487.04,2578.38,1469.53,2578.38z"/>
	<linearGradient id="SVGID_31_" gradientUnits="userSpaceOnUse" x1="1537.6875" y1="2582.3315" x2="1609.0459" y2="2582.3315">
		<stop  offset="0" style="stop-color:#DE333B"/>
		<stop  offset="1" style="stop-color:#C31A20"/>
	</linearGradient>
	<polygon class="st31" points="1554.07,2586.29 1603.4,2586.29 1603.4,2572.73 1554.07,2572.73 1554.07,2532.63 1606.22,2532.63 
		1606.22,2518.88 1537.69,2518.88 1537.69,2645.78 1609.05,2645.78 1609.05,2632.04 1554.07,2632.04 	"/>
	<linearGradient id="SVGID_32_" gradientUnits="userSpaceOnUse" x1="1623.9189" y1="2582.2373" x2="1700.7373" y2="2582.2373">
		<stop  offset="0" style="stop-color:#DE333B"/>
		<stop  offset="1" style="stop-color:#C31A20"/>
	</linearGradient>
	<path class="st32" d="M1668.35,2573.86c-17.51-6.78-25.23-12.62-25.23-24.48c0-8.66,6.59-19.02,23.91-19.02
		c11.49,0,19.96,3.76,24.1,6.02l4.52-13.37c-5.65-3.2-15.06-6.21-28.05-6.21c-24.66,0-41.04,14.69-41.04,34.46
		c0,17.89,12.8,28.62,33.51,35.96c17.13,6.59,23.91,13.37,23.91,25.23c0,12.8-9.79,21.65-26.55,21.65c-11.3,0-22.03-3.77-29.37-8.28
		l-4.14,13.74c6.78,4.52,20.15,8.1,32.38,8.1c29.94,0,44.43-16.95,44.43-36.53C1700.74,2592.5,1689.82,2582.14,1668.35,2573.86z"/>
	<linearGradient id="SVGID_33_" gradientUnits="userSpaceOnUse" x1="1708.6445" y1="2582.3315" x2="1802.5957" y2="2582.3315">
		<stop  offset="0" style="stop-color:#DE333B"/>
		<stop  offset="1" style="stop-color:#C31A20"/>
	</linearGradient>
	<polygon class="st33" points="1802.6,2518.88 1708.64,2518.88 1708.64,2532.81 1747.24,2532.81 1747.24,2645.78 1763.81,2645.78 
		1763.81,2532.81 1802.6,2532.81 	"/>
	<linearGradient id="SVGID_34_" gradientUnits="userSpaceOnUse" x1="1792.9941" y1="2582.3315" x2="1899.1826" y2="2582.3315">
		<stop  offset="0" style="stop-color:#DE333B"/>
		<stop  offset="1" style="stop-color:#C31A20"/>
	</linearGradient>
	<path class="st34" d="M1836.11,2518.88l-43.12,126.9h16.95l13.18-39.92h45l13.56,39.92h17.51l-43.3-126.9H1836.11z
		 M1826.51,2593.06l12.43-36.71c2.45-7.72,4.52-15.44,6.4-22.97h0.38c1.88,7.34,3.77,14.87,6.59,23.16l12.43,36.53H1826.51z"/>
	<linearGradient id="SVGID_35_" gradientUnits="userSpaceOnUse" x1="1912.3643" y1="2583.3672" x2="2005.9385" y2="2583.3672">
		<stop  offset="0" style="stop-color:#DE333B"/>
		<stop  offset="1" style="stop-color:#C31A20"/>
	</linearGradient>
	<path class="st35" d="M1989.37,2594c0,28.05-12.05,40.48-30.88,40.48c-16.95,0-29.56-12.05-29.56-40.48v-75.12h-16.57v74.75
		c0,39.35,19.58,54.22,45.56,54.22c27.49,0,48.01-16,48.01-54.98v-73.99h-16.57V2594z"/>
	<linearGradient id="SVGID_36_" gradientUnits="userSpaceOnUse" x1="2034.3682" y1="2581.8608" x2="2117.0215" y2="2581.8608">
		<stop  offset="0" style="stop-color:#DE333B"/>
		<stop  offset="1" style="stop-color:#C31A20"/>
	</linearGradient>
	<path class="st36" d="M2088.59,2585.34v-0.56c13.37-4.52,23.91-15.63,23.91-32.38c0-9.79-3.58-18.45-9.98-24.1
		c-7.91-7.16-19.2-10.36-36.71-10.36c-11.3,0-23.16,0.94-31.44,2.64v125.21h16.38v-54.98h15.44c14.87,0.57,21.65,7.16,25.42,24.67
		c3.58,15.82,6.4,26.74,8.47,30.31h16.94c-2.64-4.9-5.65-17.13-9.79-34.83C2104.22,2597.77,2098.38,2588.73,2088.59,2585.34z
		 M2067.5,2578.38h-16.76v-46.32c2.64-0.75,8.28-1.51,16.19-1.51c17.32,0.19,29.18,7.34,29.18,23.72
		C2096.12,2568.78,2085.01,2578.38,2067.5,2578.38z"/>
	<linearGradient id="SVGID_37_" gradientUnits="userSpaceOnUse" x1="2126.999" y1="2582.3315" x2="2233.1875" y2="2582.3315">
		<stop  offset="0" style="stop-color:#DE333B"/>
		<stop  offset="1" style="stop-color:#C31A20"/>
	</linearGradient>
	<path class="st37" d="M2170.11,2518.88l-43.12,126.9h16.95l13.18-39.92h45l13.56,39.92h17.51l-43.3-126.9H2170.11z
		 M2160.51,2593.06l12.43-36.71c2.45-7.72,4.52-15.44,6.4-22.97h0.38c1.88,7.34,3.77,14.87,6.59,23.16l12.43,36.53H2160.51z"/>
	<linearGradient id="SVGID_38_" gradientUnits="userSpaceOnUse" x1="2251.8291" y1="2582.3315" x2="2347.0977" y2="2582.3315">
		<stop  offset="0" style="stop-color:#DE333B"/>
		<stop  offset="1" style="stop-color:#C31A20"/>
	</linearGradient>
	<path class="st38" d="M2331.66,2571.98c0,19.77,0.38,35.21,1.88,52.15l-0.38,0.19c-6.03-12.99-13.37-26.36-22.78-41.23l-40.67-64.2
		h-17.89v126.9h15.44v-54.22c0-21.09-0.38-36.34-1.32-52.34l0.57-0.19c6.4,13.74,14.87,28.24,23.72,42.36l40.29,64.39h16.57v-126.9
		h-15.44V2571.98z"/>
	<linearGradient id="SVGID_39_" gradientUnits="userSpaceOnUse" x1="2361.2178" y1="2582.3315" x2="2455.1689" y2="2582.3315">
		<stop  offset="0" style="stop-color:#DE333B"/>
		<stop  offset="1" style="stop-color:#C31A20"/>
	</linearGradient>
	<polygon class="st39" points="2361.22,2518.88 2361.22,2532.81 2399.82,2532.81 2399.82,2645.78 2416.38,2645.78 2416.38,2532.81 
		2455.17,2532.81 2455.17,2518.88 	"/>
</g>
</svg>
