<svg xmlns="http://www.w3.org/2000/svg" viewBox="0 0 180 75.5">
<!-- SVG created with Arrow, by QuiverAI (https://quiver.ai) -->
  <style type="text/css">.cls-0 {fill:#082121;}
.cls-1 {fill:none;stroke:#E1E4E3;stroke-width:0.3;stroke-miterlimit:10;}</style>
  <path class="cls-0" d="m65.4 35.1c-1.3-5.5-5.1-9.1-11.2-9.1-7.5 0-12.5 6.1-12.5 12 0 5.5 3.3 8.9 9.3 8.9 2.6 0 5.9-0.4 9.5-1.5-0.1 6.4-1.1 10.2-6.5 12.4-4.6 2-11.5 4-20.9 4-7 0-11.8-1-15.6-3.9-3.2-2.3-6.1-6.3-6.1-12.5 0-6.3 3.5-12.1 10-14.2l0.1-0.8c-8.5 0-13.7 8.6-13.7 16.9 0 6.4 2.8 11.2 7.6 14.5 4 2.8 9 4.2 16.7 4.2 8.6 0 15.9-1.2 21.4-3.6 8.3-3.5 11.9-9.3 11.9-19.8v-7.5zm-5.8 7.6c-1.7 0.4-3.7 0.7-6.3 0.7-4.3 0-7.5-1.9-7.5-6.4 0-4.6 2.5-7.5 7-7.5 4.9 0 8 2.7 8 10.1v2.7l-1.2 0.4z"/>
  <path class="cls-0" d="m48.3 18.6 5.2-0.7 0.9-6.6-5.1 0.4-1 6.9z"/>
  <path class="cls-0" d="m57.2 18 5-0.5 1-6.6-5 0.3-1 6.8z"/>
  <path class="cls-0" d="m77.3 9.9"/>
  <path class="cls-0" d="m71.7 7.5v47l0.7-0.3c2.8-1.6 3.4-2.3 3.4-3.2v-41.6c0-0.9-1.7-1.6-4.1-1.9z"/>
  <path class="cls-0" d="m172.5 12.3c-2.2 0-11.4 3.8-15.6 5.8-7.8 3.7-11.8 8.8-12.6 16.7l2.3-1.4c2.6-6.1 6.6-9.8 12.5-12.3l9.4-3.8c-1 5.9-6.9 10.8-11.9 14-3.5 2.3-10.1 4.3-11.5 5.8-2.6 2.3-6.5 3.8-9.9 4.8-7.4 2.1-17 4-27.1 4.7 0.1-1 0.1-2 0.1-3.5 0-7.5-4.4-13.7-11.6-13.7s-12.7 6-12.7 12.6c0 3.1 1.5 5.4 4.1 7 1.9 1 5.1 1.5 11.5 1.5h3c-2.1 4.5-5.1 6.4-9.9 8.1-5 1.8-13.2 3.5-20.8 3.7v3.8c7.6 0 15.1-0.7 20.7-2.5 6.7-1.8 12-6 14.9-13.5 11.7-0.5 26.2-3.5 36.6-8.6-0.4 7.7-3.6 13.1-9.4 16.5-4.7 2.9-11.1 4.6-22.2 4.9l-0.4 3.5c1.5 0.1 3.2 0.1 5.5 0.1 18.9 0 30.4-7.9 30.4-25v-2c4-1.9 8.2-3.5 11.6-5.6 8.4-5 12.7-12 13.1-20.5l-0.1-1.1zm-68.7 34.4c-1.4 0.1-2.7 0.1-4.3 0.1-7.3 0-11.3-1.6-11.3-6 0-3.9 2.8-7.9 7.4-7.9 4.9 0 8.3 3.2 8.3 10.6 0 1.1 0 2.1-0.1 3.2z"/>
  <rect class="cls-1" x="10.9" width="21.4" height="75.5"/>
  <rect class="cls-1" x="32.3" width="126.4" height="75.5"/>
  <rect class="cls-1" x="158.7" width="21.3" height="75.5"/>
  <line class="cls-1" x2="180" y1="11.2" y2="11.2"/>
  <line class="cls-1" x2="180" y1="28.2" y2="28.2"/>
  <line class="cls-1" x2="180" y1="50.1" y2="50.1"/>
  <line class="cls-1" x2="180" y1="69.2" y2="69.2"/>
</svg>