<svg xmlns="http://www.w3.org/2000/svg" viewBox="0 0 140 212">
<!-- SVG created with Arrow, by QuiverAI (https://quiver.ai) -->
  <style type="text/css">.cls-0 {fill:#0D0D0D;}
.cls-1 {fill:none;stroke:#262626;stroke-width:0.25;stroke-miterlimit:10;}
.cls-2 {fill:#101010;}
.cls-3 {fill:url(#SVGID_1_);}
.cls-4 {fill:#D7C8B1;}
.cls-5 {fill:url(#SVGID_2_);}
.cls-6 {fill:#293D2C;}
.cls-7 {fill:url(#SVGID_3_);}
.cls-8 {fill:#857C67;}
.cls-9 {fill:#F2EBDD;}</style>
  <rect class="cls-0" width="140" height="212"/>
  <line class="cls-1" x1="72.8" x2="72.8" y2="101.5"/>
  <path class="cls-1" d="m87 10.3c-18.2-2.3-34.7 5.1-45 13.5-9.2 7.6-17.5 18.9-22.9 26.2-5.8 7.7-11.6 17.8-14.1 29.1-4.7 21.9-3.3 30.1-1.2 44.3 1.7 11.6 3.3 32.1-1.3 49.6"/>
  <path class="cls-1" d="m27.3 6.5 19.6 21.5c9.5 11.1 19.1 20.2 27.4 23.8 14 5.9 19.3 14.2 25.6 17.9"/>
  <path class="cls-1" d="m28 44c8.4-6.3 19.2-11.9 29.6-12.4 10.4-0.4 25 3.4 31.6 7 3.6 2 8.3 4.9 8.3 4.9"/>
  <path class="cls-1" d="m1.2 57.7c6.3-7.9 18.8-17.9 31.2-22.3"/>
  <path class="cls-1" d="m26.9 45.4c-4.9 12.3-5.1 26.2-4.5 57.9l-4.2 14.4-6.5 11.9"/>
  <path class="cls-1" d="m8.8 129.6c-2.9-2.9-2.5-3.8-2.5-3.8"/>
  <path class="cls-1" d="m0.7 146.6c3.2 5.2 13.9 14.5 13.9 14.5"/>
  <path class="cls-1" d="m47.7 65.8c2.9-8.1 9.9-16 12.3-17.3"/>
  <path class="cls-1" d="m30 35.4h-15.4"/>
  <path class="cls-1" d="m97.5 32.5h-56.6"/>
  <path class="cls-1" d="m139.5 32.5h-28.7"/>
  <path class="cls-1" d="m132.1 38.5-0.2 27.3-9.1 31.6"/>
  <path class="cls-1" d="m111.3 32.5c8.7 0 22.8 7.3 28.7 16.4"/>
  <path class="cls-1" d="m123.3 6.5 8.2 3.6"/>
  <path class="cls-1" d="m133 15.4-9.7 17.1"/>
  <path class="cls-1" d="m110.8 13.9c4.3 8.6 20.7 23.8 20.7 23.8"/>
  <path class="cls-1" d="m37.8 127c-4.7-7.2-8.3-15.5-8.3-24.8 0.5-9.8 7.4-31.7 28.1-38.6 16.7-5.5 28.7-2.1 38.3 5.1"/>
  <path class="cls-1" d="m11.7 136.1c2.9 3.8 7.4 8.7 7.8 11.4"/>
  <path class="cls-1" d="m0.7 160.8h14.8"/>
  <path class="cls-1" d="m81.2 181.2c22.3 1.4 45.4-9.1 58.3-27.1"/>
  <path class="cls-1" d="m111.3 172.1 24.8 17.5"/>
  <path class="cls-1" d="m101.7 160.8h37.8"/>
  <path class="cls-1" d="m116.4 102.2c4.6 6.6 14.4 29.4 15.5 39.5 0.9 8 0.5 23.8 1.1 24.7"/>
  <line class="cls-1" x1="116.4" x2="139.5" y1="101.5" y2="101.5"/>
  <path class="cls-2" d="m39.1 32.5c7.8 0 13.8-3.3 23.3-2.2l10.4 1.7c-5.3 0.5-18.3-0.4-21.7 0.5-5.5 1.1-13.3 2-18 2.5l6-2.5z"/>
  <path class="cls-1" d="m40 32.5 12.9-1.3"/>
  <linearGradient id="SVGID_1_" x1="8.596" x2="112.9" y1="104.6" y2="104.6" gradientUnits="userSpaceOnUse">
    <stop stop-color="#918671" offset="0"/>
    <stop stop-color="#C0B399" offset="1"/>
  </linearGradient>
  <path class="cls-3" d="m8 207.4c-1.8 1.6-0.5-2.4 0.8-15.9 1.1-12.9 2.5-20.2 7.1-32.7 5.4-11.8 14.3-24.5 24.7-32.3 12.8-10.2 26.2-14.6 36.8-21.7 10.5-6.9 20.7-16.5 23-26l0.4-6.2-0.4-12.9c-1.2-9-4.7-22.9 1.3-36.1 3.6-8.2 10.5-17.1 11.2-18l0.4-0.4c-4.7 10.2-5.6 12-2.5 28.4 3 14 4.3 17.6 4.3 27.4l-0.9 38.9 0.4 16.4c-2.2 14.9-2.9 33.6-18 49.2-9.8 10-20.5 14.4-41.7 15.1-14.5-0.3-28.7 2-38.5 11.8l-4.7 4.2-3.7 5.5v5.3z"/>
  <path class="cls-4" d="m9.3 203.2-1.3 4.2h-0.5l1.8-14.6c2.4-20.7 6.2-30 7.5-33.1 8.7-18 21.4-30.1 32.3-37.4 12-7.3 20.2-10.8 27-14.9 10.2-5.5 20.5-15.5 24.3-22.6-2.9 9.6-14.7 22-23 28.9-14.1 10.6-20.7 12.2-28.3 16.8-14 8.9-20 14.5-28.2 28.8-9.2 15.3-11 32.2-12.9 41.5l1.3 2.4z"/>
  <linearGradient id="SVGID_2_" x1="11.26" x2="103.3" y1="156.4" y2="156.4" gradientUnits="userSpaceOnUse">
    <stop stop-color="#05100E" offset="0"/>
    <stop stop-color="#11261E" offset=".526"/>
    <stop stop-color="#10211D" offset="1"/>
  </linearGradient>
  <path class="cls-5" d="m11.3 196.6c2.9-14.5 6-27.8 11.6-37.3 8.2-14.3 15.3-21.2 30.9-30.3 6.8-3.6 16.8-9.1 19.4-11.3l0.5 18.4 26.2-12.9 3.4 12.9c-2.5 18.9-9.6 31.6-23 37.4-11.9 5.1-19.7 5.5-28.8 5.1-8.6 0-23.3 2-28.6 7.5l-11.6 10.5z"/>
  <linearGradient id="SVGID_3_" x1="34.69" x2="103.3" y1="157" y2="157" gradientUnits="userSpaceOnUse">
    <stop stop-color="#060F0C" offset="0"/>
    <stop stop-color="#14291F" offset=".4624"/>
    <stop stop-color="#10211D" offset="1"/>
  </linearGradient>
  <path class="cls-7" d="m34.7 174.6c6.8-5.1 14.4-9.8 19.8-10.9 12.3-2.9 22.5-2 31.2-5.8 7.1-2.9 13.5-6.2 17.6-14.2-2 10-7.6 20-15.2 24.9-7.5 5.5-18.4 9.1-24.8 8.9-7.9-0.5-20.9-0.9-28.6 1.5v-4.4z"/>
  <path class="cls-8" d="m101.3 76.5c2.4-6-2.1-22.9-2.1-33.8 0-15.1 3.4-21.5 8.5-28.8l1.3-2.2c-2.2 5.5-6.8 12.1-8.6 20.3-1.2 7 0 21.2 2.2 36.1l-0.4 10.2 1.5 38-1.1 4.2h1.1c1.6 19.4-3.8 40.3-18 50.3-9.6 6.7-20 7.8-25.7 8.7 12.4 0 21.2-2 28.6-8 13.6-10 17.1-26.5 18.2-38.3l0.9-17.3-6.4-39.4z"/>
  <path class="cls-4" d="m22 186.1c5.3-4 17.5-7.1 28.6-7.5 8.5 0 16.2 1.3 26.8-2.7 19.2-6.9 25.9-21.8 27.2-38-3.8 9.1-10 17.1-29.8 20-10.2 1.4-17.2 0.9-30.1 7.6l-1.8 0.9c9.1-2.7 15.8-4.9 25.5-5.6 13.3-1.1 24.4-2.9 31.5-13.3l1.4-4.7c-7.6 9.8-15.6 13.6-30.3 15.1-11.9 0.9-18.1 2.5-26.8 7.6l-9.1 6.9-12.7 11.3-9.8 10.9 9.4-8.5z"/>
  <path class="cls-6" d="m26.9 162.4c-1.4 5.3-2.3 16.6-2.3 16.6l0.9 0.5 4-17.1h13.4l0.9-1.6h-13.6l0.9-11.8-1.6 1.4-0.4 8.9-5.8 0.4-0.4 1.4 4 1.3z"/>
  <path class="cls-6" d="m20.4 164.4 6 3.3-0.9 1.3-5.5-2.6 0.4-2z"/>
  <path class="cls-6" d="m55.4 127.9-4.8 12.9c-2 12.9-9.1 25.1-11.1 26.9 6.9-4.5 11.6-17.3 12.9-24.9l5.2-15.8-2.2 0.9z"/>
  <linearGradient id="SVGID_4_" x1="73.18" x2="102.8" y1="121" y2="121" gradientUnits="userSpaceOnUse">
    <stop stop-color="#000503" offset="0"/>
    <stop stop-color="#0F201B" offset=".4624"/>
    <stop stop-color="#16281F" offset="1"/>
  </linearGradient>
  <path d="m73.2 117.7 17.2-14.7 12.2-23.6 0.2 23.9 0.5 15.7c-4.1 10.6-8.7 12.9-19.6 16.9l-10 3.5-0.5-21.7z" fill="url(#SVGID_4_)"/>
  <path class="cls-6" d="m73.7 135.9c5.5-3.6 16.2-19.1 20.4-32.9l-0.9-0.8c-2 10.6-12 23.7-16.2 27.9l-3.3 5.8z"/>
  <path class="cls-4" d="m68.1 143.7c6.7-7.8 13.1-5.6 25.1-11.8 6.7-3.4 9.4-9.6 10.1-12v3.3c-3.8 8.4-12.5 12.2-25.9 16.7l-10.6 6-21.2 18.2c7.8-4.8 17.3-13.7 21.2-16.6 3.8-2.5 10.2-5.8 12.4-6.7 8.3-2.9 18.3-6.5 22.1-12.9l2-2.9v-1.8c-5.2 8.4-13.8 10.5-24.1 14.2-4.4 1.6-8.2 3.8-11.1 6.3z"/>
  <path class="cls-6" d="m63.3 173.5 4.2-3.6-1.1-0.4s-2.6 2.6-3.1 4z"/>
  <path class="cls-9" d="m11.3 196.6 10-11.6 6.9-6.4 9.6-8.7c9.1-8.4 19.8-15.8 26.4-23.3 6.4-8 8.2-12.9 8.2-19.2-2.7 12-9.1 18.5-14.8 23.4l-17.2 15.6c-7.5 5.7-20 16.8-29.1 30.2z"/>
  <path class="cls-9" d="m73.7 105.9c6.2-2.6 20.9-12.6 26.2-23.3-4.7 7.5-15.3 16.8-26.2 23.3z"/>
  <path class="cls-9" d="m16.8 160.8c5.6-14.7 20.1-31.2 31.4-38.5 10.9-6.4 22.8-12.4 25.5-14.2-6.9 2.7-20.8 9.6-26.8 13.3-11.4 7.6-21.8 18-30.1 35l-2.2 5.1 2.2-0.7z"/>
  <path class="cls-4" d="m102.6 72.6-1.3 5.7 13.3 23.9-12-27.9v-1.7z"/>
  <path class="cls-4" d="m102.6 74.3 10.3-8.9-0.5 1.1-9.1 8.3-0.7-0.5z"/>
  <path class="cls-9" d="m106.8 13.9 6.1-8.3v-0.4l-0.5 2.9c-1.1 0.4-2 1.3-2 2l-3.6 3.8z"/>
  <path class="cls-8" d="m112.9 8.1v-1.6l0.9-1.3-0.9 2.9z"/>
</svg>