<svg xmlns="http://www.w3.org/2000/svg" viewBox="4.6 551.9 788.2 166">
<!-- SVG created with Arrow, by QuiverAI (https://quiver.ai) -->
  <style type="text/css">.cls-0 {fill:#FCF8F7;}
.cls-1 {fill:#572E28;}
.cls-2 {fill:#4B231D;}
.cls-3 {fill:#FAB531;}
.cls-4 {fill:#FFFFFF;}
.cls-5 {fill:url(#SVGID_1_);}</style>
  <rect class="cls-0" x="521.8" y="551.9" width="271" height="166"/>
  <polygon class="cls-1" points="297 551.9 297 717.9 521.6 717.9 521.6 551.9"/>
  <polygon class="cls-2" points="4.7 551.9 4.6 717.9 287.9 717.9 287.9 551.9"/>
  <path class="cls-3" d="m220.7 606c-10-0.4-35.3 5.8-52.9 17.6-4.6-22.8-20.2-42.6-20.8-42.6l-29.1 36.7c-14.7-17.1-42.8-24.7-44-20.7 7.1 11.8 18.1 42.9 19.8 44s-0.5-17.6-7.7-34.6c7.1 1.6 20.1 11.6 27.2 21.6-7.1 12.8-4.9 24 3.2 24.2s12.8-12.5 5.6-25.9l22.4-29.3c3.3 6.8 10.7 26.1 12.6 33-6 6.1-9.3 22.2-8.5 22.2 8 0.6 13.1 1 15.6-16 11.2-9.6 25.8-15.9 40.2-18.3-22.2 28-30.1 46.1-30.4 46.1-43.1-9.7-68 2.9-70.5 8s33.2-12.8 75.4 4.8c16.2-39.2 41.5-60.9 41.9-70.8m-152.7-10c9 2 13.4-10 2.4-13-7.8-0.1-10.1 10.8-2.4 13zm79.4-18c8.6 0 11.3-11.1 1.6-13.6-9-0.2-12.4 12-1.6 13.6zm77.8 20.5c-6.4 5.5-1.2 11.4 3.7 11.1 6.1-0.5 6.7-12-1.2-11.6l-2.5 0.5zm-108.3 45.5c-1.6-1.8-0.5-5.8 0.6-7.9 1.4 2.6 2.3 7.3-0.6 7.9z"/>
  <path class="cls-4" d="m338.1 595.5c3.9 7.8 17.5 42.1 19.5 45.5 2.9-0.9-5.4-28-8.1-34.6 7.1 1.6 21.2 12.3 25.7 21.3-7.9 17.3-0.8 25.2 6.8 23.7 6.9-1.5 9.2-12.9 3.6-25 3.9-7.7 20-28.5 20.4-29.4 3.6 5.1 11.1 26.5 11.5 34.2-6.7 7.1-9.4 21.1-7.5 21.1 8.1-0.2 12.3 1.4 16-16.7 9.6-8.7 26.9-15.6 39.2-17.8-16.1 20-27.5 42.7-30.4 46.6-34.3-9.9-67.5 0.5-68.8 8.5 26.4-11 54-6.9 73.9 3.2 14.5-36.5 39.6-59.1 40.5-69.2-6.4-1.4-35.6 3.7-56.1 18.1-3.6-15.4-15.8-43.1-16.3-44-8.7 8.6-23.2 25.7-29.1 37.7-14.4-16.5-40.9-24.6-40.8-23.2m-6.2-0.1c7.3 2.2 13.6-9.4 2.1-12.5-6.9-0.7-10.5 10.2-2.1 12.5zm75.3-18.4c7.6 5.5 14.7-7 6-11.5-7.3-2.1-13.2 7-6 11.5zm78.4 32c8.8 4.1 10.9-8.2 4.1-10-6.2-1.4-10.2 7-4.1 10zm-105.6 35.5c-1.9-1.4-0.9-5.5 0-7.5 1.4 2.5 2.3 7.1 0 7.5z"/>
  <linearGradient id="SVGID_1_" x1="562" x2="733.6" y1="636.6" y2="636.6" gradientUnits="userSpaceOnUse">
    <stop stop-color="#4A251F" offset="0"/>
    <stop stop-color="#5C322A" offset=".9969"/>
  </linearGradient>
  <path class="cls-5" d="m606.6 576.6c-16.1 1.4-25.6 17.2-25.7 24.4 0.1 10.8 14.1 12.5 16 2 1.8-8.4 15.5-12.6 19.6-0.1 3.2 10.1 16.2 7.2 15.4-1.9-0.9-11.5-12-25.4-25.3-24.4zm83.9 0c-17.5-2-27.4 12.9-27.4 23 1 11.4 13.3 12 16.3 3.4 0.6-9 15.6-12.9 20 0 2.8 8.6 15.6 6.6 15.6-2-0.1-10.6-9.6-23.1-24.5-24.4zm9.4 55.4c-2.6 3.4-1.1 6.5 3 8l5.1 2h13l2.4 0.6c3.6 2.5 10.6 11.4 0.7 9.3-2.1 0.1-4.2-3.4-5.1-2.9-7 7.9-27.9 32-68 32.1-39.1 0.3-63.5-14.2-76-32.1-1.6 1.5-3.5 3-6 3-5.8 0-9.4-7-4-11l18.4-10.4c7-3.6 12 4 8 7.4l-3.5 2.5c15 13 32.1 25 59 25.1 24.1 0.3 45.2-9.6 62.1-24.6l-6-3-3.1-6z"/>
</svg>