<svg xmlns="http://www.w3.org/2000/svg" viewBox="0 0 95.2 171.4">
<!-- SVG created with Arrow, by QuiverAI (https://quiver.ai) -->
  <style type="text/css">.cls-0 {fill:#F5F5F5;}
.cls-1 {fill:#010202;}
.cls-2 {fill:#424242;}</style>
  <path class="cls-1" d="m80.1 38.2c0.7 5.9 2.5 14.3 2.4 18.2-0.5 7.7-5.6 14.5-12.1 20.1-10.8 9.5-24.3 15-33.3 20.2-9.5 5.6-17.1 12.9-21.5 19.6-9.9 14.6-12.2 25.8-13.7 41.2l0.9 0.1h0.1l1.4-6.5c3.4-14.5 8.8-25.5 19.4-34.8 11.5-10.6 19.7-12 30.4-18.9 11.6-7.3 21.1-18 26.3-31.7 1.1-2.7 1.8-5.1 2.3-6.6 1.4 14.3 2.5 31.5 1.9 45.2-1 18.1-7.7 33.2-25.1 39.5-5.4 1.9-11.1 2.5-16.9 2.3-10.7-0.3-20.5 1.2-29.7 8.2v0.1l-0.2 0.2c-0.6 0.3 0.4-0.5-0.1 0 0 0 0.5-0.3 0 0l0.2-0.2h0.1l-0.2 0.2-0.9 0.4c7.4-8.2 18.2-16.1 25.3-19.5 6.7-3.1 11.6-3.9 17.8-4.6 9.5-0.7 16.6-2.9 21-6.3 3.7-2.8 6.9-6.9 7.8-10.6-3.7 7-9.2 11.6-17.5 13.7-6.8 1.6-12.5 1.5-18.3 2.4-5.1 0.8-10.5 2.8-15.6 6 5.3-4 10.9-8.3 16.4-13.3 5.9-5.6 12.4-8 17.7-10 8.4-3.1 14.9-6.8 17.4-14.4 0.3-1 0.6-2 0.8-3.8-2.8 10-8.7 12.8-15.9 15.7-4.6 1.7-9.6 2.9-17.5 8 5.7-6 6.9-11.4 6.2-24.2l-0.1 0.2c0 11.4-0.8 14.1-4.2 19.7-4.4 7.2-15.6 15.5-22.2 21.2l-2 2.3c7.8-8.8 8.2-16.7 11-26.1 0.7-2.4 1.6-4.8 3.2-8.5l-0.2 0.2c-3.8 7.4-4.8 13.2-7 20.1-3.3 10.2-9.2 15.7-11.5 17.5-7.4 6.3-17.3 16.1-21.2 22.4l0.7-0.7 0.2-0.1-1.6 2.3 1.5-1.6c7.7-9.4 18.6-14.9 34.5-15.2 5.4-0.2 10.1 0.3 16.4-0.9 6-1 11.7-2.8 15.7-5.3 11-7 18.3-19 21.5-31 2-7.2 3.1-15.5 3.1-24.2v-34c0-11.9-2.7-16.7-4.6-28.8-1.1-7.2-1.5-15 2.3-21.9h-1c-7.4 8.4-13.8 18.9-11.8 36.5z"/>
  <path class="cls-1" d="m3.6 151-0.8 6.6h-0.1l-0.6 5.4c-0.5 2.9-0.7 5.6-1.2 7.6 5.6-12 15.2-18.6 20.5-20.3-8.4 2.7-15.3 8.1-19.7 15.8 1.4-5 2-10 2.9-15l-1-0.1z"/>
  <path class="cls-1" d="m91.4 5.4c0.7-1.8 1.7-3.4 3-4.3-3 0.6-19 16.8-17 35l4.5 0.3c0-12 3.5-21.8 9.5-31z"/>
  <path class="cls-2" d="m55.1 114c6.6-6.9 14.3-15.6 19.5-29.9-3.6 9.5-10.7 19.5-19.5 29.9z"/>
  <path class="cls-2" d="m18.7 134.4 2.9-12.5-4 22.1-0.2 2.3v0.1z"/>
</svg>