<svg xmlns="http://www.w3.org/2000/svg" viewBox="0 0 180 260">
<!-- SVG created with Arrow, by QuiverAI (https://quiver.ai) -->
  <style type="text/css">.cls-0 {fill:url(#SVGID_1_);}
.cls-1 {fill:#848587;}
.cls-2 {fill:#FFFFFF;}</style>
  <linearGradient id="SVGID_1_" x1="89.98" x2="89.98" y1="260" y2="-9.095e-13" gradientUnits="userSpaceOnUse">
    <stop stop-color="#0F0F0F" offset="0"/>
    <stop stop-color="#2B2B2B" offset="1"/>
  </linearGradient>
  <rect class="cls-0" x="1.6" width="180.7" height="260"/>
  <path class="cls-1" d="m171.1 247.4c0.2-0.5 0.5-0.5 0.6 0 0.6 2.4 2.6 4.4 5.1 5.2 0.4 0.1 0.4 0.5 0 0.6-2.5 0.7-4.4 2.7-5.1 5.2-0.1 0.4-0.5 0.4-0.6 0-0.6-2.4-2.6-4.4-5.1-5.2-0.4-0.1-0.4-0.5 0-0.6 2.6-0.8 4.5-2.8 5.1-5.2z"/>
  <path d="m124.6 43.4c-2.6-10.1-7.4-26.1-0.1-41.4-10.4 10.6-19.6 26.6-17.6 47.1 1.7 18.2 6.2 25.1 1.1 36.9-5 11.6-19.8 24.4-39.9 35.2-11 5.9-21.2 11.4-26.9 15.9-18.6 14-33.7 34.1-37 69.4l-0.1 1.2v0.3l-0.1 1v0.2 0.1 0.1l-0.5 5.5-1 19.8c5.2-12.7 16.9-23.6 31.7-28.3 11.3-4 20.4-3.1 33.1-3.5 6.8-0.2 11.9-1.1 17.8-2.6 21.2-5.9 40.6-26.9 41.5-69.6v-54.5c0.4-11.4 0.6-22.6-2-32.8zm0.4 17.5c-2.4-6.5-6.7-12.6-8.4-19.3-2.2-9.4-1.5-17.4 0.6-26.1-1.3 9-0.1 16.5 1.7 23.9 1.8 7.8 4.8 16.1 5.9 24.9h0.2zm-8.6-44.3c-2.8 9.5-3.2 17.8-0.6 27 1.8 6.8 3.7 13.7 4.1 20.6-4.6-6.5-10.2-12.1-10.7-23.4-0.3-9.2 4.4-19.4 7.2-25.2zm-7.8 29.1c2.4 9.9 9 16 11.2 20.3 3.3 4.6 5.2 10.9 5.1 16.4v-5.5l0.1 4.6c-1.1-5.6-4.7-9.3-7.5-12.8-2.1-2.7-5.6-6.6-6.7-11.6-1-3.8-1.8-8.4-2.2-11.4zm2.7 19.4c3.2 6.1 7.7 9.8 9.8 15.2 2.2 5.4 3.5 12.4 3.7 14.5h-0.2c-2.2-13.9-8.9-19-12-26.1zm-100.2 125.2c5.2-17.9 14.4-31.2 24.4-41.9-2.4 3.3-3.8 8.5-6.5 12.8-6.6 7.8-13.7 17.6-17.9 30.1h-0.1s0.1-0.5 0.1-1zm-4.7 36.8 2-11.3c2.7-13.2 5.8-24.3 11-34.9-0.9 8.8 7.4 16.4-0.2 27.4-3.8 4.6-9.8 10.8-12.8 17.2zm24.8-68.8c2.5-5.2 4.1-10.3 8.6-14 7.3-6.5 17.7-11.9 28.8-18.4-7 9-13.1 13.8-22 19.9-5.5 3.5-11.1 7.8-15.4 12.5zm41-35.2c2.5-1.4 5.8-2.8 9.3-5.2-3.1 5-4.8 11.1-12.1 15.2-3.6 2.4-9.1 5.1-16.2 9.3 6.9-4.8 13.1-14.5 19-19.3zm31.7-24.4c-3.5 7.2-12.8 19.4-28.2 31.1 3.3-3.5 5.6-10.9 7.4-12.6 8-5.1 14.8-10.8 20.8-18.5zm6.1-9.7c-1.6 10.9-6.8 27.8-16.7 44.3 1.9-5.7-0.3-14 4.5-21.4 4.6-5.7 9.8-14.1 12.2-22.9zm-15.4 26.5 0.1 0.1h-0.2c-2.2 6.8-0.3 13.7-4.6 21.4-3 5.1-9.1 12.2-14.9 19.6v-0.1c5.1-6.9 2.9-14.1 8.8-20.9 3.8-4.5 6.8-8 8.2-16.7 0.9-1 1.8-2.2 2.6-3.4zm-11.7 11.9c2.7-2 5.4-4.5 7.9-7.4-0.7 4.2-2.9 8.4-5.7 11.9-1.9 2.2-4.4 5-5.6 8.9 0.4-7.3 0.1-10.1 3.4-13.4zm-11.3 7.2 8.3-5.6c-3.5 7.9 1.1 17.6-7 27.5-2.4 3.1-5.8 6.7-9.6 11.1 6.3-8.7 2.7-16.7 4.6-24.7 0.6-2.5 2.2-5.8 3.7-8.3zm-1.7 1c-5.4 7.5-3.6 12.6-3.9 19.7-0.2 4.6-1.5 9.7-4.8 14.3-3.7 4.2-9.8 8.5-18.2 16.9 12.4-16.9 9.4-35.7 22.4-47.1l4.5-3.8zm-22 13.3 13.7-8.3c-10.2 11-9.5 26.8-17 40.5 2.8-7.3-2.1-14.5-1.2-23.5 0.6-4 1.5-6.8 4.5-8.7zm-12.1 8.2c2.4-2.2 5-4.2 8.6-6.5-1.8 3-2 7.5-2.3 10-2 8.3-10.6 13.2-14.2 22.4 0.6-9.8 2.5-19.9 7.9-25.9zm-13.7 16c2.4-3.5 5.9-7.5 9.5-11.5-5 8.3-5 22.3-7.2 34.8l-0.3 2.2c0.3-8.2-6.6-15.5-2.6-23zm19.5 13.3c4.9-6.3 3.5-13.3 1.8-18.5l-0.9-5.8c-2 8.8-12.4 14.3-14.1 21.9-2.3 6.9-1.4 10.8-5.5 21.4 5.9-5.7 15.5-13.7 18.7-19zm27.3 14.5c-8.3 0.5-19.5-1-32.3 2.3-6.2 1.5-13.4 4.4-17.6 7.6l-0.1-0.1 0.1 0.1v0.1-0.1h0.4c6.5-6.7 15.2-14.1 23.7-17 10.1-2.4 13.5 4.8 21.9 7.3zm-13.1-6c-2.2-1.5-5.2-2.5-8.7-2.7 5.3-1.1 9.8-1.3 15.3 0 8.1 1.5 16 5.9 26.6 2.7-4 2.3-12.6 5.5-20.2 5.9-5.2 0-8.7-2.4-13-5.2zm31.6-0.5c-7.5 2.3-12.9 0.3-20.5-2.2 13.6 0 16.6-7.8 24.7-8.1 4.5 0.3 9.5-1.5 12.5-4.5-4.5 7.1-10 12.8-16.7 14.8zm18.2-18.2c-8.6 8.4-17.7 6.4-22.5 5l-10.1-2.6c11.5-1.2 26.9-1.7 36.9-16.2l1.7-3.8c-0.8 5.8-3.2 13.3-6 17.6zm6.9-20.6c-10.1 18.6-25.9 19.1-41.7 21.5 10.8-3.5 13.7-11.5 25.1-15 4.5-1.7 10.2-2.7 16.7-9.7zm-7.5 1.1c-4.6 3.2-10.5 3.2-16.9 6.9-4.7 2.8-9 7.6-13.9 10.3-5.6 3.5-15.8 4.2-27.8 11.5 7-4.8 17.2-6.3 22.6-5.8 6.6 0.3 12 2.8 18.6 4.3-5 1-8.2 6.7-21.2 7.5-5.8-0.3-14.5-4.5-29.4 3v0.2-0.2h-0.1 0.1 0.1c7.3-5.5 17.5-12.7 30.3-14.7 9.2-1.1 16.7 5 26.5 4.3 9-0.6 16-8.4 19.3-27.4v-6.2zm8.6-8.3c-4.1 7.2-10.7 8.5-16.1 7.7-4-0.2-7.1-1-11-0.5 10.9-4 20.1-6 25.9-17l1.7-4.4v-0.1-0.2-1.3c0.3 0 0.3 12.8-0.5 15.8zm-12.5-0.8c4-5.2 5-15.7 6.8-22.2 2.6-3.3 4.7-7 5.7-11.8 0 2.8 0.8 12.3 0.5 14.3-1.7 9.7-7.5 16-13 19.7zm-7-13.5c5.8-8.5 13.8-27.2 17.4-50.5 0.4 3.8 1.7 20.8 1.7 26-1.1 14.3-12.4 18-19.1 24.5zm-1 17-9.1 3.3c-3.4 1.2-7.4 3.2-10.6 5.5 3.5-4.3 11.1-10.5 17.4-20.2 3.8-5.5 8.8-8.1 16.1-13.8-2.5 10.5-3.9 22.2-10.3 24.2zm0.3 43c11.7-7 19.8-21.5 22.1-47.5 1.1 7.3 1.6 14.6-3 27-5.6 8.5-12.9 16.5-19.1 20.5zm21.6-24.5c2.9-6.4 1.9-19.7 0.9-41l-0.4-20.7c2.4 9.7 10.9 21.7 6.6 44.2-1.3 5.5-4 12.5-7.1 17.5zm8.9-29.2c0.1-19.6-8.8-25-10-46.5l-0.3-9.8c3.5 12.5 12 24 11 44zm-7.7-55.5c-2.7-6.5-4.3-15.8-4.8-19.5 2 4.6 8.2 9.3 11.2 19.3 2 6.2 2.4 11.9 2.4 16.9v10.5c-1.4-8.5-6.6-17.2-8.8-27.2zm8.9-8.5c-0.7-3.5-2.6-7.3-4.5-11l-2.2-15.5c3 5.5 6.5 13.7 6.7 21.2v5.3z" fill="#fff"/>
</svg>