<svg xmlns="http://www.w3.org/2000/svg" viewBox="4 -5 168.7 71">
<!-- SVG created with Arrow, by QuiverAI (https://quiver.ai) -->
  <style type="text/css">.cls-0 {fill:url(#SVGID_1_);}
.cls-1 {fill:#FFFFFF;}</style>
  <linearGradient id="SVGID_1_" x1="4" x2="172.9" y1="30.5" y2="30.5" gradientUnits="userSpaceOnUse">
    <stop stop-color="#D12A34" offset="0"/>
    <stop stop-color="#B90F14" offset="1"/>
  </linearGradient>
  <rect class="cls-0" x="4" y="-5" width="168.9" height="71"/>
  <g fill="#fff">
    <path d="m13.7 9.8c-0.5 0.7-0.7 2.6-0.7 4.2l-0.5 3c0 0.4 0 0.9 0.2 0.9l5-0.2 3.3-0.4c0.4 8 0 16.9-0.2 26v1.3c0 1.1 0.2 1.1 3.4 1.1h1.8c1.7 0 4.5 0 4.8-0.2s0.2 0.2 0.4-10.5l-0.3-6v-11.5l1.1-0.2 6.7 0.2c0.7 0 0-2.1 0-4.5l0.1-3.8-0.2-0.2c-1.3 0-7.6 0.8-12.7 0.8-5.3 0-10.7-0.4-12.2-0.6z"/>
    <path d="m52.7 8.5c-1.1 0-2.2 5.7-4.6 11l-8.7 23.2c-0.6 1.7-0.8 2 1.1 2.2h5l3.7-0.1c0.9-1.5 1.3-4.8 1.8-5 0.6-0.2 2.9-0.2 5-0.2l6.6 0.2c1.5 0 1.3 3 2.3 4.8 0.2 0.2 1.5 0.4 3 0.4h4.6c1.3 0 3.1 0 3.1-0.6 0-0.9-12.2-32.7-13.5-35.7l-0.6-0.4h-1.7l-1.7 0.2-3.8-0.2-1.6 0.2zm4.6 12.5c0.2 0 2.5 6.9 2.5 8.9 0 0.4-1 0.6-2.1 0.6h-1.7c-1 0-1.9 0-1.9-0.7 0-1.4 2.6-8.8 3.2-8.8z"/>
    <path d="m79.2 9.2c0 0.8 0.9 9.9 0.7 16.8v5c0 5.5-0.3 8.6-3.9 10.8-0.4 0.2-0.6 0.8-0.4 1.1l2.8 2.4 3.2 3.4 0.4 0.2c1.1-0.2 4.1-3.6 5.4-6.5 1.4-3 1.7-6.1 1.7-11.4 0-2.2 0.2-6.7 0.2-14.7v-6.9l-0.3-0.2-4.6 0.2-3.9-0.2h-1.3z"/>
    <path d="m97 9.4 0.4 8.9-0.3 9.2 0.3 0.2h4.8l0.2-0.2v-4.2l-0.2-4.2 3.9 8.6h1.5l4-9.2c0.4 0.2 0.2 2.9 0 9l1.1 0.1h4.6l-0.2-9.1 0.2-9.1-0.2-0.2-3.1 0.2-1.7-0.2-4.9 9.7h-0.4l-4.6-9.7h-5.4v0.2z"/>
    <path d="m126.6 14c-4 0-7 2.8-7 7 0 4.4 3.6 6.6 6.8 6.6 2.1 0 6.7-1.1 7.1-6.2 0.2-3.1-1.9-7.4-6.9-7.4zm0 3.9c1.7 0 2.4 1.4 2.4 2.5s-0.8 2.4-2.4 2.4-2.1-0.9-2.1-2.4 0.6-2.5 2.1-2.5z"/>
    <path d="m141.5 14c-2.8 0-6.9 1.4-6.9 6.8-0.2 3.9 3 6.6 6.7 6.6 2.7 0 6.8-1.6 6.8-6.6 0-4.2-2.8-6.8-6.6-6.8zm0 3.8c1.1 0 2.3 0.9 2.3 2.4a2.3 2.3 0 0 1-2.3 2.5c-1.7 0-2.4-1.1-2.4-2.3 0-1.9 0.9-2.6 2.4-2.6z"/>
    <path d="m150.6 9.2-0.2 0.2 0.4 8.5-0.4 9.2 0.6 0.2c0.6 0 3 0.1 6.6 0.1 2.9 0 5.6-0.5 7.5-2.2 2.5-2.3 3-5.3 3-7.4-0.2-3.2-1.7-7.4-6.4-8.4-2.3-0.5-8.7-0.5-11.1-0.2zm5.8 3.3h1.6c2.4 0 4.7 1.7 4.7 4.8s-1.4 5.4-4.6 5.4h-1.1l-0.9-0.2-0.1-0.7v-9.1l0.4-0.2z"/>
    <path d="m117.9 31.6-7.9 5c-1.7 0.5-1.3 3.8 1.2 2.8l1.3-0.9c3.1 3.9 8.4 8.2 19.8 8.4 9.2 0 15.6-3.4 20.2-8.6l1.4 1.1c2.8 0.8 3.4-2.1 1.5-3l-6.5-4c-2.1-1.4-4.3 1.4-1.7 2.6l0.9 0.6c-4.5 4.8-9.4 7-15 7.1-6.9 0-11.4-2.8-16.1-6.7l1.8-1.4c1.6-0.8 0.6-3.2-0.9-3z"/>
    <path d="m133.7 1.9c-1.2 0.5-4.7 3.1-6.3 4.4-1.2-1.9-2.9-3.8-6.1-4.8 0.7 2 1.3 5.2 0.9 7.9 1-2.1 1-3.9 0.7-5.3 0.8 0 2.8 2 3.3 3.4-2.3 3.3 0.4 4.6 1.4 2.3 0.3-0.6 0.3-1.3 0.1-2.1l4.5-3.6 1.1 4.8c-3.3 1.7-3.3 4-1.3 3.4 0.9-0.4 1.5-1.2 1.9-2.5 3.6-0.8 4.8-0.8 7-0.4-2.6 1.2-5.3 3.1-6.7 4.3-3.6-1.8-7.8-2.9-11-1 5.1-0.2 8 0 10.9 2.7 2.7-2.5 6.5-4.8 10.8-7.3-3-1-6.4-1.2-10.3-0.2 0.2-1.8 0-4.2-0.7-6.4l-0.2 0.4zm-6.7 7.1c-0.4 1.4-1.3 1-0.4-0.3l0.4-0.6v0.9zm5 3.1v-0.6l1.3-0.9c-0.4 1.1-0.8 1.5-1.3 1.5z"/>
    <circle cx="120.4" cy=".7" r="1"/>
    <circle cx="134.2" cy="1.1" r="1"/>
    <ellipse cx="146.4" cy="9" rx="1" ry=".9"/>
  </g>
</svg>