<svg xmlns="http://www.w3.org/2000/svg" viewBox="48 76.5 198 56.9">
<!-- SVG created with Arrow, by QuiverAI (https://quiver.ai) -->
  <style type="text/css">.cls-0 {fill:#F9F7F7;}
.cls-1 {fill:#DFDFDD;}
.cls-2 {fill:url(#SVGID_1_);}
.cls-3 {fill:#EABD3A;}
.cls-4 {fill-rule:evenodd;clip-rule:evenodd;fill:#E4BC3C;}
.cls-5 {fill:#562B24;}
.cls-6 {fill:url(#SVGID_2_);}</style>
  <path class="cls-1" d="m50.5 103.8c-0.1 0-0.1 0 0 0z"/>
  <path class="cls-1" d="m51.8 104.2-1-0.4c-0.1 0.7 1.1 0.8 1 0.4z"/>
  <path class="cls-1" d="m50.6 103.4v0.6c0.3-0.1 0.3-0.4 0-0.6z"/>
  <path class="cls-1" d="m50.2 104s-0.1 0.9 0.4 0.9 1.5-0.2-0.4-0.9z"/>
  <linearGradient id="SVGID_1_" x1="114.5" x2="114.5" y1="91.07" y2="130.1" gradientTransform="translate(0 .8)" gradientUnits="userSpaceOnUse">
    <stop stop-color="#F8BF18" offset="0"/>
    <stop stop-color="#F5BD1D" offset="1"/>
  </linearGradient>
  <path class="cls-2" d="m105.4 99.9v11.7l0.4 12.8c0.1 1.6-0.2 1.7-2 1.7h-6.3c-1.6-0.1-1.8-0.1-1.8-1.7l0.3-16.4c0-2.8-0.1-6.3-0.2-8h-0.8l-5.5 0.2c-1.9 0-1.9-0.1-1.6-1.6 0.5-1.8 0.6-2.3 0.7-4.6 0-1.6 0.4-1.7 1.4-1.6 4 0.2 7 0.5 10.9 0.4 4.1 0 7-0.5 10.7-0.6 1.3-0.1 1.3 0.2 1.2 1.8l0.2 4.8c0.1 1.2 0 1.2-1.3 1.2l-5.9-0.1h-0.4zm39.6 24.1c0.6 1.4 0.3 1.5-1.4 1.5h-6.5c-1.8 0-1.9 0-2.3-2.1-0.6-2.7-0.7-3.1-2-3.1h-8.8c-1.8 0-1.9 0-2.4 2.7-0.5 2.4-0.8 2.5-2.2 2.5h-6.9c-1.6 0-2.1-0.1-1.5-1.5l11.5-30.2c0.4-1.3 0.8-2 1.5-1.9 1.5 0.2 5.3 0.2 7.5 0.2 0.5 0 0.7 0.3 1.7 2.5l11.8 29.4zm-14.1-12.2-2.9-8.9-2.9 8.6c-0.3 1.1 0.7 1.1 1.4 1.1h3.1c0.8-0.1 1.6 0 1.3-0.8zm28.3-19.4-8.2 0.1c-0.9-0.1-1.7-0.1-1.5 1.1 0.6 6.4 1.1 14.2 0.9 20.2-0.5 8.2-2.8 8.6-3.8 9.5-0.9 0.6-0.6 1.3 0 1.7 1.8 1.7 3.4 3.1 5 4.9 0.9 1 1.4 0.6 2.4-0.4 4.8-4.7 5.8-10.5 5.8-17.1l0.3-18.8c0-1.3-0.2-1.2-0.9-1.2z"/>
  <path class="cls-3" d="m206.1 97.9c-0.1 0.1-0.2 0.1-0.5 0.2-3.4-2.5-7-3.3-10.6-2.9l0.2 0.2c-0.4 0-1.3 0-0.2-0.4 3.2-0.9 8.2-0.6 12 1.7 1.6-1.8 5.2-4 7.8-5.3 0 0-5.3-0.7-7.4 0.7-0.8 0.8-2 2.7-2.8 2.3h-0.5c-2.2-0.8 0.4-2.4 1.8-3.8l-0.3-5.2c-1.6 1-4.4 2.7-4.8 3.5 1.1 3.1-2.8 5.3-3.7 2.7-0.1-1.4 1.1-2.7 1.3-3.1-1.2-2-2.2-3-3.5-4.1l0.1 4.8c-0.6 0.9-0.6-1.1-1-3.1l-1-4c0.5-1 4.4 1.5 6.8 5.3l2.2-1.8 4.4-2.9 0.5-0.1 0.7 7.3c2.4-0.8 7-0.4 10.6 0.3 0.8 0.7 0.4 0.9-0.6 1.4-2.6 1.4-7.6 4.4-9.7 6.6l-1 0.7m-7.7-8.9-0.6 1.2 0.5-0.2 0.4-0.5-0.3-0.5z"/>
  <path class="cls-4" d="m192.8 80c0.8-1.2-0.7-1.9-1.6-0.9-1.2 1.8 1.3 3.1 1.6 0.9z"/>
  <path class="cls-4" d="m207.4 79.9c0.7-1.1-1.3-0.9-1.4 0-0.9 1.6 1.9 2.6 1.4 0z"/>
  <path class="cls-4" d="m221.7 90.1c0.3-1.2-1.8-1-1.7 0.3 0 1.5 2.4 1.2 1.7-0.3z"/>
  <linearGradient id="SVGID_2_" x1="201.4" x2="199.5" y1="92.15" y2="130.1" gradientUnits="userSpaceOnUse">
    <stop stop-color="#5E3027" offset="0"/>
    <stop stop-color="#4C2A23" offset="1"/>
  </linearGradient>
  <path class="cls-6" d="m199.1 98c-4.3 0-7.1 2.7-7.1 7.2s3.4 7.4 7.1 7.4 7.5-2 7.3-7.4c0-4.3-2.8-7.2-7.3-7.2zm0 10.5c-1.5 0-2.5-1.3-2.5-3s1.3-3 2.5-3 2.6 1 2.6 2.9-1.6 3.1-2.6 3.1zm16.9-10.4c-4.1-0.5-8.1 1.8-8.4 6.9 0 5.5 3.9 7.6 8 7.6 3.4-0.1 7-2.4 7.5-6.7 0.1-4.5-2.6-7.8-7.1-7.8zm-0.5 10.3c-1.6 0-3-1.2-2.9-3 0-1.9 1.3-2.9 2.6-2.9 1 0 2.7 0.7 2.7 3 0.1 1.7-1.4 2.9-2.4 2.9zm27.6-6.3c0 4.6-2.6 10.1-9.1 10.4-2 0.2-6.1 0-8.5 0-0.7 0-0.9 0.1-0.9-1 0.3-9 0-13.1-0.1-17.6 0-1.4 0.4-1.4 1.1-1.4 8.3 0 11.3-0.6 14.4 2.1 2.2 1.9 3.1 4.4 3.1 7.5zm-5 0c0-3.9-3.1-5.9-6.1-5.4-1 0-1.1 0-1.1 0.8v9.4c0 1 0.7 1.1 2.2 1.1 3.8 0 5.3-2.6 5-5.9zm-48 9.5-0.3-10 0.2-8.7c0-0.4 0-0.5-0.4-0.5h-4.2c-0.4 0-0.6 0-1 1l-4.5 9.6c-0.1 0.4-0.4 0.4-0.5 0l-4.8-10.1c-0.2-0.4-0.2-0.5-0.6-0.5l-4.5 0.1c-0.9 0-0.9 0.4-0.9 0.5 0.4 7.6 0.4 10.2 0.3 12.5l-0.3 6.4c0 0.6 0.3 0.5 0.8 0.5l3.8 0.1c0.7 0 0.8-0.1 0.8-0.6 0.1-2.9-0.1-7.3-0.1-8.7l0.3-0.2 3.7 8.5c0.5 1.1 0.6 1 1.1 1h0.6c0.4 0 0.6-0.1 0.8-0.4l3.8-9.2h0.4l-0.1 9.2c0 0.4 0.1 0.4 0.5 0.4h4.6l0.5-0.1v-0.8zm39.5 8-6-3.6c-2.1-1.1-3.7 1.4-2 2.5l1.4 0.7c-1 1.5-6.4 6.7-16.4 6.9-6.8 0-13.5-3.1-16-6.7l1-0.5c2-0.9 0.8-4-1.2-3.3l-7.2 4.1c-1.8 1-0.8 4.3 2 2.4l0.4-0.2h0.4c3.1 3.7 9.4 8.5 19.6 8.6 7.8 0.1 16.3-2.4 21-9h0.4l1.2 0.7c2.3 0.9 3.7-1.6 1.4-2.6z"/>
  <path class="cls-1" d="m79.6 121.1c-1.7 3.1 0.5 1.5 0.3 0.9 1.7 1.1 1.2-3.3-0.3-0.9zm7.3-1.5-0.8-0.6c0.1 0.9 1.5 1.2 1.3 0.4l-0.5 0.2zm-2.7-0.6-0.7 3.2-0.3 0.2-1.6-0.3 1.4 1.9c0.1-0.1 1.6-4.6 1.2-5zm-12.6-6.6-3.1 2.8 1.6 1.9 1-1.7c-0.2 0 1.8-2.2 0.5-3zm-10.4 10.5-0.7 1.1h1.5l0.2-1.1h-1zm1.4-0.5 1.8-1.5 0.7 0.7 0.1 0.4h0.4l0.3-0.5-1.8-1.1-1.5 2z"/>
  <path class="cls-1" d="m238.9 127.9 0.2 1.1c1 0 1.5-1.3-0.2-1.1z"/>
</svg>