<svg xmlns="http://www.w3.org/2000/svg" viewBox="0 0 145.6 128">
<!-- SVG created with Arrow, by QuiverAI (https://quiver.ai) -->
  <style type="text/css">.cls-0 {fill:url(#SVGID_1_);}</style>
  <linearGradient id="SVGID_1_" x1="92.78" x2="61.79" y1="123.3" y2="16.26" gradientUnits="userSpaceOnUse">
    <stop stop-color="#8A2B2C" offset="0"/>
    <stop stop-color="#871D1F" offset=".25"/>
    <stop stop-color="#7E1D1E" offset=".5056"/>
    <stop stop-color="#871D1F" offset=".75"/>
    <stop stop-color="#8A2B2C" offset="1"/>
  </linearGradient>
  <path class="cls-0" d="m61.7 20c-3.7-0.1-12.9 4.5-17.9 10.6-2-3.3-7.9-9.2-9.6-10l0.3-0.2-4.9 13.7c-3.5-2.3-5.5-3.5-16.4-2.9 4.3 2.4 7.4 6.1 10.1 11.8h0.2c-0.4-3.7-3.1-7.5-4.9-9.7 3.4-0.2 7.4 1.1 10.7 2.8-1.3 4.3 1.2 8.1 4.2 6 1.9-1.4 1.4-5.2-2.3-7l4.1-9.9c2.8 2.2 5.3 4.9 7.2 7.3-2.6 3.7-1.4 7 1.4 6.7 2.7-0.2 3.4-4.3 1-6.7 2.4-3.6 9.1-7.3 12-8.3-2.4 5.4-4.4 10.8-5.8 15.1-8.1 1.5-19.1 2.1-22.4 15.3h0.2c3.6-5.4 7.3-7.7 12.2-9.3 4.8-1.6 7.7-2.8 12.2-2 0.6-3 3.8-16.3 8.4-23.3zm-30.6 17.1c1.6 1.5 2 3.8 0.4 3.7-1-1-0.8-2.9-0.4-3.7zm3-17.8c2.7 0 2.7-4.4-0.1-4.4-2.7 0-2.9 4.2 0.1 4.4zm-23.1 8.9c-1.2 0.8-3 2.7-0.7 4 1.8 0.9 4.1-1.1 2.9-2.9l-2.2-1.1zm52.4-11.6c-2.6 0.3-2.4 4.5 0.5 4.1s2.2-4.3-0.5-4.1zm-0.2 13.6c-3.2 1.9-0.1 7.8 0.7 9.8v0.9h-0.2c-1.2-4-5-6.9-5.9-5-0.7 2.3 0.6 5.2 3.1 4.5h0.8c0.7 0.5 1.7 2.2 2.2 5.1 4.1-3.9 1.1-6.9-0.2-11.5-0.1-1.9 1.3-1.9 2.6-1.6 0.9-1.4-1.1-3.5-3.1-2.2zm7.4-19.1c-3.6 9.8-2.2 21.1 1.5 37.6 2.2 0 6.8-0.8 8.4-1.8-1.8-3.8-5.5-27-9.7-35.9l-0.2 0.1zm-21 39.1c-3.7 0.4-9.1 0.9-14.2 5.5-1.9 2-5.8 7.4-6.3 9.7 6.5-5.4 17.2-7.4 27.8-5.5v0.2c-10 4.1-30.1 14.6-30.7 34.6 1.1 18.2 18.3 28.5 37.8 28.5 3.6 0 10.4-0.5 11.4-1.4-3-0.1-5.2 0.2-9.4-0.1-19.4-0.7-32.3-12.1-32.2-26 0.1-15.8 17.8-24.6 25.1-27.7 13.9-5.8 20.4-7.3 22.7-10.7 2.7-2.4 5.3-8.3 5.3-9.3-6 4.2-12.4 5.9-24.8 3.7-2.7-0.3-9.4-1.7-12.5-1.5zm4.2 34.4-0.8 0.5c-1.7 1.3-3.7 5.8-6.7 9.4 3.3 1.2 11.6 2.1 12.6 7.6 2.2-1.5 7.6-7.7 7.6-9.9 0.3-3.2-8.1-5.3-12.7-7.6zm50-30.7c-6.4-2.5-9.2-5.3-10.2-6.6 2.6-1 6.9-5.4 7-6.9l-0.1-1.7c-2.6-0.9-6-2.5-9.7-6.1-1.5-1.9-4.7 2.8-6.3 5.1-0.8 1.2-0.5 2.7 1 3.9 2.2 1.7 5.5 3.5 7.5 4.7l-5.6 6.7c-0.9 0.7-0.7 2.2 0.2 3 3 2.6 6.5 5.1 10.4 5.4 1.7 0 6.4-5.8 5.9-6.5l-0.1-1zm8.8-23.2c0-7.3 1.1-15 3.4-21.8-8.7 6.8-11.6 19.3-11.5 28.7 0.4 15.5 9.2 31.9 9.2 43.8-0.1 4.8-1.3 7.2-6.8 8.1-5.7 0-7.6-8.9-8.2-23.3-4.7 4.2-7.8 3.8-8 8.8-0.1 4.9 2.9 9.2 3.4 11.6 0.8 6-8.1 6.7-9.7 6.7 0.1-6.4 0.3-3.7 0.1-13.2 0-4-1.6-17.1-2.1-19.1-1.5 1.7-6 3.2-8.1 4.2l1 9.4c1.2 14.9-0.5 29.6-0.9 32.3 4.5-3.9 7.5-3.3 12.8-3.8 6.7-1.1 7.7-0.6 10.7-5.8 2.1 3.7 7.1 5.6 13.5 4.3 3.2-0.5 6.6-2.6 7.9-5 0.6-1 2.3-5 2.3-10 0-14.6-1.9-23-6.6-40.2-0.9-4.7-2.1-9-2.4-15.7zm15.5-1.7c-0.8-5.9 1.2-19.9 2.4-19.8-6.5 5.5-11 14.8-11 24.7 0 16 9.1 36.1 9.1 53.7 0 5.7-1 13.5-2.7 19.3 4.6-4 10.5-13.9 10.5-28.5 0-12.8-6.4-31.1-8.3-49.4z"/>
</svg>