<svg xmlns="http://www.w3.org/2000/svg" viewBox="0 0 150 133.4">
<!-- SVG created with Arrow, by QuiverAI (https://quiver.ai) -->
  <style type="text/css">.cls-0 {fill:url(#SVGID_1_);}
.cls-1 {fill:#FFF9F8;}</style>
  <linearGradient id="SVGID_1_" x1="75" x2="75" y1="133.4" y2="-9.095e-13" gradientUnits="userSpaceOnUse">
    <stop stop-color="#DE333B" offset="0"/>
    <stop stop-color="#C31A20" offset="1"/>
  </linearGradient>
  <rect class="cls-0" width="150" height="133.4"/>
  <path d="m89.5 44.5c-3.9 2.1-9.3 4.6-16.5 4.5-8-0.1-20.6-3.5-26.9-4-12.7-0.5-19.1 15.5-19.1 15.5s7.6-5.5 19.3-4.7c3.6 0.2 9.6 0.2 9.9 0.8-8.1 2.8-18.4 7.3-27.4 19.1-4.8 7-9.1 17.3-3.6 30.9 6.6 13.2 22.5 22.5 42.8 22.1 11.6-0.2 9.9-1.2 4.1-1.3-10 0-22.9-3.8-31.2-10.6-10.3-8.1-12-21.6-8.6-29.8 4.4-10.6 17.3-18.9 35.7-25.1 10.3-3.6 14.7-4.3 18-9.9l3.5-7.5z" fill="#FFEDED"/>
  <path d="m71.2 5.9c-1.2 5-2 10.8-1.8 13.8 0.4 12.4 3.4 24.6 3.4 24.6s4.2 0.7 9.4-1c-1-4.9-7.9-33.1-11-37.4z" fill="#FFEDED"/>
  <path d="m62.1 13.5c-3.7 0.4-11.7 2.5-18.9 10.9-1.4-3.7-9.5-11.8-9.6-11.5-2.4 4.7-5.8 14.5-5.6 14.9-6.8-4-12.7-4-16.5-2.7 6.5 4.3 9.9 11.7 10.2 11.7-0.4-5-4.8-9.2-4.8-9.2 2.6-0.5 7.6 0.7 10.5 2.9-1.1 9.1 5.5 8.4 5.1 3.1-0.2-1.6-1.4-3.1-2.1-4.1 1.7-6 4.2-10.9 4.2-10.9 3.5 2.8 6.9 7.8 6.9 7.8-4.8 9 2.2 10.1 3.2 5.6 0.3-1.6-0.3-5-0.3-5 7.1-6.9 11.8-8.4 11.8-8.4-3.7 6-7.4 15.5-7.4 15.4-3.2 0.7-4.1 0.8-8.6 1.7-9.2 2.7-13.3 8.1-13.5 13.9 6.7-10.2 14.7-12.9 24.7-11.6 1.6-2.9 3.3-8.3 3.7-9.5 1.6-3.9 4.3-10.4 7-15zm-31.7 21.7c-1 0.2-1.3-3.5-0.7-3.4 0.6 0.2 1.9 3.2 0.7 3.4zm11.7-2.6c-1-0.1 0.1-3.4 0.5-3.1 0.1 0.3 0.4 3.4-0.5 3.1z" fill="#FFF9F8"/>
  <path d="m10.1 21.9c-2.5-0.1-3.9 3.5-1 4.1 3.1 0.4 3.4-3.7 1-4.1z" fill="#FFEDED"/>
  <path d="m33.5 7.6c-2.6 0.1-3.5 3.9-0.5 4.1 2.9 0.3 3.5-4.1 0.5-4.1z" fill="#FFEDED"/>
  <path d="m64 9.9c-2.6 0.2-3.1 3.7 0 4 2.7 0.1 3.2-4 0-4z" fill="#FFEDED"/>
  <path d="m56.8 30.5c-1.7 5.4 2 6.7 3.6 5 1.7 2.4 2.8 3.1 2.8 5.9 3.7-2.4 2.2-7.3 0.9-10.8-0.7-4 1.9-2.5 2.3-2.7 0.7-5.8-7.5-5.6-3.9 4.1 0.5 1.8 1.1 4.9 0.9 5-0.7-2.1-1.8-6.4-6.6-6.5z" fill="#FFEDED"/>
  <path d="m44.2 94.6c4.2 2.4 11.8 2 14.4 9.9 3.1-3.5 8.8-8.5 8.6-12.7-0.9-4.1-8-5.2-12.5-7.7-4.8-1.2-6.7 5.9-10.5 10.5z" fill="#fff"/>
  <path d="m75.6 63c1.4 16 1.3 31 0 46.7 6.6-3.8 10-2.7 18.9-3.8 3.4-0.7 5.2-2.3 6.5-5.2 2 4.2 5.6 6.7 13 6 5.5-0.3 10.2-1.7 12.4-8.2 3.7-14 0-33.1-7-58.5-1.9-7.1-1.9-15.4-0.2-26.1l2.3-7.7c-1.6 0.4-7.5 5.7-9.6 12.4-2.7 7.3-3.8 14.5-2.2 28.1 3.9 20.3 12.4 40.7 7.5 43.8-6 3.5-10.3 1.4-11.7-5.5-1.5-6-2.1-19-2.9-19.4l-7.6 5.1c-4.6 6.9 1.7 15.3 1.4 19.3-0.2 4-5.4 3.8-9.4 3.6 0.9-7-0.3-26.9-2.4-35.2-2.7 2.2-6.2 3-9 4.6z" fill="#FFFFFD"/>
  <path d="m98 44.6c2.1-2 7.2-4.1 6.6-8.9-4.9-2.3-7.7-3.6-11.4-7.2-2-0.2-7.5 4.6-7.5 7.1 0.2 3.3 5.7 4.5 9.9 8-1.6 2.5-6.7 4.8-6.1 8.5 2.5 4.5 9.4 8 13.1 7.5 2.3-0.1 5.4-4.4 6-6.7-0.7-2-10.7-6.5-11.2-8.4l0.6 0.1z" fill="#FFFCFC"/>
  <path d="m135.6 6.1c-2.9 0.3-8.6 10.3-9.6 15.1-3.4 14 2.4 31.9 5.6 47.8 3.6 14.9 5.1 26.6 0.8 42.9 2.2-0.5 7.7-7.9 9.8-16.7 2.4-9.8 1.4-20 0.4-28.3-3.5-19-7.1-30.2-7.9-42.5-0.3-6.3 0.9-18 0.9-18.3z" fill="#FFF9F8"/>
</svg>