<svg xmlns="http://www.w3.org/2000/svg" viewBox="0 0 150 126.4">
<!-- SVG created with Arrow, by QuiverAI (https://quiver.ai) -->
  <style type="text/css">.cls-0 {fill:#8B1D1E;}
.cls-1 {fill:#FCFAFB;}</style>
  <rect class="cls-0" width="150" height="126.3"/>
  <g fill="#fff">
    <path class="cls-1" d="m74.9 65.5c0.9 10.6 2.2 23.5-0.9 41.3l2.6-2.2c10.5-2.5 16.9 0.5 20.1-6.6l0.6-1.4c2.6 4.2 4.6 5.9 9.1 5.9 6 0.1 12.1-1.1 13.7-7.7 1.7-5.3 3.1-20.7-5-46.8-3.3-11.2-2.6-23 0.9-34.5-7.6 6.3-11.9 17.7-11.8 26.6 0.2 15.5 9.4 35.9 9.9 41.1 0.5 5.1-1.5 8.7-6.1 9.7-2.1 0.2-5 0.2-6.5-5.4-1.6-5.9-2.7-17.1-3.1-18.1l-6.4 4.6c-3.2 4.5 0.8 11.3 1.9 16.2 0.5 2.4-2.8 4.6-4.9 4.6h-5v-14l-1.6-17.4-8.3 4.1z"/>
    <path class="cls-1" d="m130.3 12.9c-6.3 5.6-10.6 15.2-10.5 23.7 0.2 15.4 6.7 31.4 8.1 41.3 1.5 13.7 1 21.6-1.9 29.5 5.9-5 10.2-15.8 10.2-28.4-0.1-17-7.1-35.1-7.6-49.1-0.2-7.3 0.4-12 1.7-17z"/>
    <path class="cls-1" d="m85.8 50.2 0.4-0.2c-4.2 8.5-8.4 9.9-14.7 12.1-14.9 4.4-29.9 11.3-36.3 23.7-2.3 4.6-3.7 18.2 5.4 25.7s15.8 10.9 34.4 10.1v1c-23 1.8-33.6-4-37.6-7.1-6.3-4.9-10.9-12.1-11-20.5-0.4-15.4 15.6-29.5 30.7-34.9-8.3-3.2-20.5-0.6-26.6 3.9 2.9-5 8.1-14.1 19.4-14.5 7.7 0.1 16.6 5 29.1 3.1l6.8-2.4z"/>
    <path class="cls-1" d="m71.5 14.6c-3.5 6.9-1.4 22.8 0.6 34.4l7.8-0.9 0.2-1.6c-2-7.3-4.2-21.5-8.6-31.9z"/>
    <path class="cls-1" d="m89.7 33.8c-1.5 0-6.1 5.8-5.7 7.8 0.4 1.5 6.8 5 9.2 6.4-0.8 1.5-6.1 5.6-6.4 7 1.1 3 7.6 7.1 11.6 7.1 2.1-0.1 5.6-5.2 5.5-6.5l-9.9-5.5v-1.7c1.6-0.8 6.4-4 6.8-7.5-3.7-1.8-7.6-3.3-11.1-7.1z"/>
    <path class="cls-1" d="m53.5 83.6-7.4 9.9c4.5 2.6 11.3 1.5 12.5 8 3-2.9 7.9-7.9 7.5-10.9-0.3-2.8-7.9-4.7-12.6-7z"/>
    <path class="cls-1" d="m62.5 22.1c-5.5 1.9-12.7 4.4-17 9-1.9-3.2-6.1-7.1-8.4-9.5l-5.1 12.6c-3.9-1.7-7.1-2.8-13.6-2.2l7.2 10.4 0.3-0.4-4.9-8.4c4.4 0.5 8.6 1.8 10.6 2.8-0.7 2.6 0 6.7 2.3 6.7 1.7 0 3.7-4.5 0-7.3l3.7-9.9 6.8 6.7-1.8 2.9c-0.8 3.4 2.9 5.5 4.3 2.3l-0.8-5.2c3-3 7.3-5.7 11.5-7.1l-6.2 14.1-7 1.5c-6.4 1-12.9 6.4-14.5 12.9l2.5-2.9c3-4.6 12.6-8.7 20.7-8.1h0.5c2-7 5.4-14.6 8.9-20.9m-29.1 19.4c-1.6-1.7-0.3-4.5-0.3-4.5s2.5 3.6 0.3 4.5z"/>
    <circle class="cls-1" cx="15.1" cy="31" r="1.8"/>
    <circle class="cls-1" cx="36.9" cy="19" r="1.6"/>
    <circle class="cls-1" cx="64.6" cy="20.6" r="1.5"/>
    <path class="cls-1" d="m64.6 30.6c-1.7 0-2.8 1.8-2.6 3.3l1.6 8.1c-0.7-1.9-3.8-6.1-5.2-6-1.3 1.1-1.4 5.4 2.2 5.4 1.4 0.1 2 0.5 2.8 4.2 2.1-1.2 3.5-3.2 0.7-12.1 0.8-0.5 2.5 0 2.7-0.6 0.2-0.8-0.8-2.3-2.2-2.3z"/>
    <ellipse class="cls-1" cx="44.5" cy="36.2" rx=".5" ry="1"/>
  </g>
</svg>